<mxfile host="app.diagrams.net" agent="Mozilla/5.0 (Windows NT 10.0; Win64; x64) AppleWebKit/537.36 (KHTML, like Gecko) Chrome/129.0.0.0 Safari/537.36 Edg/129.0.0.0" version="24.7.16">
  <diagram name="Page-1" id="BIeippKLaWh_f7vk-IIa">
    <mxGraphModel dx="1226" dy="680" grid="1" gridSize="10" guides="1" tooltips="1" connect="1" arrows="1" fold="1" page="1" pageScale="1" pageWidth="850" pageHeight="1100" math="0" shadow="0">
      <root>
        <mxCell id="0" />
        <mxCell id="1" parent="0" />
        <mxCell id="1vJfrN8NMG1-H0iuWCPC-1" value="Employees" style="shape=table;startSize=25;container=1;collapsible=0;childLayout=tableLayout;fixedRows=1;rowLines=1;fontStyle=1;align=center;resizeLast=1;hachureGap=4;fontFamily=Architects Daughter;fontSource=https%3A%2F%2Ffonts.googleapis.com%2Fcss%3Ffamily%3DArchitects%2BDaughter;labelBackgroundColor=none;rounded=0;" parent="1" vertex="1">
          <mxGeometry x="800" y="280" width="120" height="223" as="geometry" />
        </mxCell>
        <mxCell id="1vJfrN8NMG1-H0iuWCPC-2" style="shape=tableRow;horizontal=0;startSize=0;swimlaneHead=0;swimlaneBody=0;fillColor=none;collapsible=0;dropTarget=0;points=[[0,0.5],[1,0.5]];portConstraint=eastwest;top=0;left=0;right=0;bottom=0;hachureGap=4;fontFamily=Architects Daughter;fontSource=https%3A%2F%2Ffonts.googleapis.com%2Fcss%3Ffamily%3DArchitects%2BDaughter;labelBackgroundColor=none;rounded=0;" parent="1vJfrN8NMG1-H0iuWCPC-1" vertex="1">
          <mxGeometry y="25" width="120" height="22" as="geometry" />
        </mxCell>
        <mxCell id="1vJfrN8NMG1-H0iuWCPC-3" value="int" style="shape=partialRectangle;connectable=0;fillColor=none;top=0;left=0;bottom=0;right=0;align=left;spacingLeft=2;overflow=hidden;fontSize=11;hachureGap=4;fontFamily=Architects Daughter;fontSource=https%3A%2F%2Ffonts.googleapis.com%2Fcss%3Ffamily%3DArchitects%2BDaughter;labelBackgroundColor=none;rounded=0;" parent="1vJfrN8NMG1-H0iuWCPC-2" vertex="1">
          <mxGeometry width="36" height="22" as="geometry">
            <mxRectangle width="36" height="22" as="alternateBounds" />
          </mxGeometry>
        </mxCell>
        <mxCell id="1vJfrN8NMG1-H0iuWCPC-4" value="Employee_ID" style="shape=partialRectangle;connectable=0;fillColor=none;top=0;left=0;bottom=0;right=0;align=left;spacingLeft=2;overflow=hidden;fontSize=11;hachureGap=4;fontFamily=Architects Daughter;fontSource=https%3A%2F%2Ffonts.googleapis.com%2Fcss%3Ffamily%3DArchitects%2BDaughter;labelBackgroundColor=none;rounded=0;" parent="1vJfrN8NMG1-H0iuWCPC-2" vertex="1">
          <mxGeometry x="36" width="84" height="22" as="geometry">
            <mxRectangle width="84" height="22" as="alternateBounds" />
          </mxGeometry>
        </mxCell>
        <mxCell id="1vJfrN8NMG1-H0iuWCPC-5" style="shape=tableRow;horizontal=0;startSize=0;swimlaneHead=0;swimlaneBody=0;fillColor=none;collapsible=0;dropTarget=0;points=[[0,0.5],[1,0.5]];portConstraint=eastwest;top=0;left=0;right=0;bottom=0;hachureGap=4;fontFamily=Architects Daughter;fontSource=https%3A%2F%2Ffonts.googleapis.com%2Fcss%3Ffamily%3DArchitects%2BDaughter;labelBackgroundColor=none;rounded=0;" parent="1vJfrN8NMG1-H0iuWCPC-1" vertex="1">
          <mxGeometry y="47" width="120" height="22" as="geometry" />
        </mxCell>
        <mxCell id="1vJfrN8NMG1-H0iuWCPC-6" value="string" style="shape=partialRectangle;connectable=0;fillColor=none;top=0;left=0;bottom=0;right=0;align=left;spacingLeft=2;overflow=hidden;fontSize=11;hachureGap=4;fontFamily=Architects Daughter;fontSource=https%3A%2F%2Ffonts.googleapis.com%2Fcss%3Ffamily%3DArchitects%2BDaughter;labelBackgroundColor=none;rounded=0;" parent="1vJfrN8NMG1-H0iuWCPC-5" vertex="1">
          <mxGeometry width="36" height="22" as="geometry">
            <mxRectangle width="36" height="22" as="alternateBounds" />
          </mxGeometry>
        </mxCell>
        <mxCell id="1vJfrN8NMG1-H0iuWCPC-7" value="First_Name" style="shape=partialRectangle;connectable=0;fillColor=none;top=0;left=0;bottom=0;right=0;align=left;spacingLeft=2;overflow=hidden;fontSize=11;hachureGap=4;fontFamily=Architects Daughter;fontSource=https%3A%2F%2Ffonts.googleapis.com%2Fcss%3Ffamily%3DArchitects%2BDaughter;labelBackgroundColor=none;rounded=0;" parent="1vJfrN8NMG1-H0iuWCPC-5" vertex="1">
          <mxGeometry x="36" width="84" height="22" as="geometry">
            <mxRectangle width="84" height="22" as="alternateBounds" />
          </mxGeometry>
        </mxCell>
        <mxCell id="1vJfrN8NMG1-H0iuWCPC-8" style="shape=tableRow;horizontal=0;startSize=0;swimlaneHead=0;swimlaneBody=0;fillColor=none;collapsible=0;dropTarget=0;points=[[0,0.5],[1,0.5]];portConstraint=eastwest;top=0;left=0;right=0;bottom=0;hachureGap=4;fontFamily=Architects Daughter;fontSource=https%3A%2F%2Ffonts.googleapis.com%2Fcss%3Ffamily%3DArchitects%2BDaughter;labelBackgroundColor=none;rounded=0;" parent="1vJfrN8NMG1-H0iuWCPC-1" vertex="1">
          <mxGeometry y="69" width="120" height="22" as="geometry" />
        </mxCell>
        <mxCell id="1vJfrN8NMG1-H0iuWCPC-9" value="string" style="shape=partialRectangle;connectable=0;fillColor=none;top=0;left=0;bottom=0;right=0;align=left;spacingLeft=2;overflow=hidden;fontSize=11;hachureGap=4;fontFamily=Architects Daughter;fontSource=https%3A%2F%2Ffonts.googleapis.com%2Fcss%3Ffamily%3DArchitects%2BDaughter;labelBackgroundColor=none;rounded=0;" parent="1vJfrN8NMG1-H0iuWCPC-8" vertex="1">
          <mxGeometry width="36" height="22" as="geometry">
            <mxRectangle width="36" height="22" as="alternateBounds" />
          </mxGeometry>
        </mxCell>
        <mxCell id="1vJfrN8NMG1-H0iuWCPC-10" value="Last_Name" style="shape=partialRectangle;connectable=0;fillColor=none;top=0;left=0;bottom=0;right=0;align=left;spacingLeft=2;overflow=hidden;fontSize=11;hachureGap=4;fontFamily=Architects Daughter;fontSource=https%3A%2F%2Ffonts.googleapis.com%2Fcss%3Ffamily%3DArchitects%2BDaughter;labelBackgroundColor=none;rounded=0;" parent="1vJfrN8NMG1-H0iuWCPC-8" vertex="1">
          <mxGeometry x="36" width="84" height="22" as="geometry">
            <mxRectangle width="84" height="22" as="alternateBounds" />
          </mxGeometry>
        </mxCell>
        <mxCell id="1vJfrN8NMG1-H0iuWCPC-11" style="shape=tableRow;horizontal=0;startSize=0;swimlaneHead=0;swimlaneBody=0;fillColor=none;collapsible=0;dropTarget=0;points=[[0,0.5],[1,0.5]];portConstraint=eastwest;top=0;left=0;right=0;bottom=0;hachureGap=4;fontFamily=Architects Daughter;fontSource=https%3A%2F%2Ffonts.googleapis.com%2Fcss%3Ffamily%3DArchitects%2BDaughter;labelBackgroundColor=none;rounded=0;" parent="1vJfrN8NMG1-H0iuWCPC-1" vertex="1">
          <mxGeometry y="91" width="120" height="22" as="geometry" />
        </mxCell>
        <mxCell id="1vJfrN8NMG1-H0iuWCPC-12" value="string" style="shape=partialRectangle;connectable=0;fillColor=none;top=0;left=0;bottom=0;right=0;align=left;spacingLeft=2;overflow=hidden;fontSize=11;hachureGap=4;fontFamily=Architects Daughter;fontSource=https%3A%2F%2Ffonts.googleapis.com%2Fcss%3Ffamily%3DArchitects%2BDaughter;labelBackgroundColor=none;rounded=0;" parent="1vJfrN8NMG1-H0iuWCPC-11" vertex="1">
          <mxGeometry width="36" height="22" as="geometry">
            <mxRectangle width="36" height="22" as="alternateBounds" />
          </mxGeometry>
        </mxCell>
        <mxCell id="1vJfrN8NMG1-H0iuWCPC-13" value="Email" style="shape=partialRectangle;connectable=0;fillColor=none;top=0;left=0;bottom=0;right=0;align=left;spacingLeft=2;overflow=hidden;fontSize=11;hachureGap=4;fontFamily=Architects Daughter;fontSource=https%3A%2F%2Ffonts.googleapis.com%2Fcss%3Ffamily%3DArchitects%2BDaughter;labelBackgroundColor=none;rounded=0;" parent="1vJfrN8NMG1-H0iuWCPC-11" vertex="1">
          <mxGeometry x="36" width="84" height="22" as="geometry">
            <mxRectangle width="84" height="22" as="alternateBounds" />
          </mxGeometry>
        </mxCell>
        <mxCell id="1vJfrN8NMG1-H0iuWCPC-17" style="shape=tableRow;horizontal=0;startSize=0;swimlaneHead=0;swimlaneBody=0;fillColor=none;collapsible=0;dropTarget=0;points=[[0,0.5],[1,0.5]];portConstraint=eastwest;top=0;left=0;right=0;bottom=0;hachureGap=4;fontFamily=Architects Daughter;fontSource=https%3A%2F%2Ffonts.googleapis.com%2Fcss%3Ffamily%3DArchitects%2BDaughter;labelBackgroundColor=none;rounded=0;" parent="1vJfrN8NMG1-H0iuWCPC-1" vertex="1">
          <mxGeometry y="113" width="120" height="22" as="geometry" />
        </mxCell>
        <mxCell id="1vJfrN8NMG1-H0iuWCPC-18" value="string" style="shape=partialRectangle;connectable=0;fillColor=none;top=0;left=0;bottom=0;right=0;align=left;spacingLeft=2;overflow=hidden;fontSize=11;hachureGap=4;fontFamily=Architects Daughter;fontSource=https%3A%2F%2Ffonts.googleapis.com%2Fcss%3Ffamily%3DArchitects%2BDaughter;labelBackgroundColor=none;rounded=0;" parent="1vJfrN8NMG1-H0iuWCPC-17" vertex="1">
          <mxGeometry width="36" height="22" as="geometry">
            <mxRectangle width="36" height="22" as="alternateBounds" />
          </mxGeometry>
        </mxCell>
        <mxCell id="1vJfrN8NMG1-H0iuWCPC-19" value="Role" style="shape=partialRectangle;connectable=0;fillColor=none;top=0;left=0;bottom=0;right=0;align=left;spacingLeft=2;overflow=hidden;fontSize=11;hachureGap=4;fontFamily=Architects Daughter;fontSource=https%3A%2F%2Ffonts.googleapis.com%2Fcss%3Ffamily%3DArchitects%2BDaughter;labelBackgroundColor=none;rounded=0;" parent="1vJfrN8NMG1-H0iuWCPC-17" vertex="1">
          <mxGeometry x="36" width="84" height="22" as="geometry">
            <mxRectangle width="84" height="22" as="alternateBounds" />
          </mxGeometry>
        </mxCell>
        <mxCell id="1vJfrN8NMG1-H0iuWCPC-20" style="shape=tableRow;horizontal=0;startSize=0;swimlaneHead=0;swimlaneBody=0;fillColor=none;collapsible=0;dropTarget=0;points=[[0,0.5],[1,0.5]];portConstraint=eastwest;top=0;left=0;right=0;bottom=0;hachureGap=4;fontFamily=Architects Daughter;fontSource=https%3A%2F%2Ffonts.googleapis.com%2Fcss%3Ffamily%3DArchitects%2BDaughter;labelBackgroundColor=none;rounded=0;" parent="1vJfrN8NMG1-H0iuWCPC-1" vertex="1">
          <mxGeometry y="135" width="120" height="22" as="geometry" />
        </mxCell>
        <mxCell id="1vJfrN8NMG1-H0iuWCPC-21" value="int" style="shape=partialRectangle;connectable=0;fillColor=none;top=0;left=0;bottom=0;right=0;align=left;spacingLeft=2;overflow=hidden;fontSize=11;hachureGap=4;fontFamily=Architects Daughter;fontSource=https%3A%2F%2Ffonts.googleapis.com%2Fcss%3Ffamily%3DArchitects%2BDaughter;labelBackgroundColor=none;rounded=0;" parent="1vJfrN8NMG1-H0iuWCPC-20" vertex="1">
          <mxGeometry width="36" height="22" as="geometry">
            <mxRectangle width="36" height="22" as="alternateBounds" />
          </mxGeometry>
        </mxCell>
        <mxCell id="1vJfrN8NMG1-H0iuWCPC-22" value="Position" style="shape=partialRectangle;connectable=0;fillColor=none;top=0;left=0;bottom=0;right=0;align=left;spacingLeft=2;overflow=hidden;fontSize=11;hachureGap=4;fontFamily=Architects Daughter;fontSource=https%3A%2F%2Ffonts.googleapis.com%2Fcss%3Ffamily%3DArchitects%2BDaughter;labelBackgroundColor=none;rounded=0;" parent="1vJfrN8NMG1-H0iuWCPC-20" vertex="1">
          <mxGeometry x="36" width="84" height="22" as="geometry">
            <mxRectangle width="84" height="22" as="alternateBounds" />
          </mxGeometry>
        </mxCell>
        <mxCell id="1vJfrN8NMG1-H0iuWCPC-23" style="shape=tableRow;horizontal=0;startSize=0;swimlaneHead=0;swimlaneBody=0;fillColor=none;collapsible=0;dropTarget=0;points=[[0,0.5],[1,0.5]];portConstraint=eastwest;top=0;left=0;right=0;bottom=0;hachureGap=4;fontFamily=Architects Daughter;fontSource=https%3A%2F%2Ffonts.googleapis.com%2Fcss%3Ffamily%3DArchitects%2BDaughter;labelBackgroundColor=none;rounded=0;" parent="1vJfrN8NMG1-H0iuWCPC-1" vertex="1">
          <mxGeometry y="157" width="120" height="22" as="geometry" />
        </mxCell>
        <mxCell id="1vJfrN8NMG1-H0iuWCPC-24" value="int" style="shape=partialRectangle;connectable=0;fillColor=none;top=0;left=0;bottom=0;right=0;align=left;spacingLeft=2;overflow=hidden;fontSize=11;hachureGap=4;fontFamily=Architects Daughter;fontSource=https%3A%2F%2Ffonts.googleapis.com%2Fcss%3Ffamily%3DArchitects%2BDaughter;labelBackgroundColor=none;rounded=0;" parent="1vJfrN8NMG1-H0iuWCPC-23" vertex="1">
          <mxGeometry width="36" height="22" as="geometry">
            <mxRectangle width="36" height="22" as="alternateBounds" />
          </mxGeometry>
        </mxCell>
        <mxCell id="1vJfrN8NMG1-H0iuWCPC-25" value="Department" style="shape=partialRectangle;connectable=0;fillColor=none;top=0;left=0;bottom=0;right=0;align=left;spacingLeft=2;overflow=hidden;fontSize=11;hachureGap=4;fontFamily=Architects Daughter;fontSource=https%3A%2F%2Ffonts.googleapis.com%2Fcss%3Ffamily%3DArchitects%2BDaughter;labelBackgroundColor=none;rounded=0;" parent="1vJfrN8NMG1-H0iuWCPC-23" vertex="1">
          <mxGeometry x="36" width="84" height="22" as="geometry">
            <mxRectangle width="84" height="22" as="alternateBounds" />
          </mxGeometry>
        </mxCell>
        <mxCell id="1vJfrN8NMG1-H0iuWCPC-26" style="shape=tableRow;horizontal=0;startSize=0;swimlaneHead=0;swimlaneBody=0;fillColor=none;collapsible=0;dropTarget=0;points=[[0,0.5],[1,0.5]];portConstraint=eastwest;top=0;left=0;right=0;bottom=0;hachureGap=4;fontFamily=Architects Daughter;fontSource=https%3A%2F%2Ffonts.googleapis.com%2Fcss%3Ffamily%3DArchitects%2BDaughter;labelBackgroundColor=none;rounded=0;" parent="1vJfrN8NMG1-H0iuWCPC-1" vertex="1">
          <mxGeometry y="179" width="120" height="22" as="geometry" />
        </mxCell>
        <mxCell id="1vJfrN8NMG1-H0iuWCPC-27" value="date" style="shape=partialRectangle;connectable=0;fillColor=none;top=0;left=0;bottom=0;right=0;align=left;spacingLeft=2;overflow=hidden;fontSize=11;hachureGap=4;fontFamily=Architects Daughter;fontSource=https%3A%2F%2Ffonts.googleapis.com%2Fcss%3Ffamily%3DArchitects%2BDaughter;labelBackgroundColor=none;rounded=0;" parent="1vJfrN8NMG1-H0iuWCPC-26" vertex="1">
          <mxGeometry width="36" height="22" as="geometry">
            <mxRectangle width="36" height="22" as="alternateBounds" />
          </mxGeometry>
        </mxCell>
        <mxCell id="1vJfrN8NMG1-H0iuWCPC-28" value="Date_Joined" style="shape=partialRectangle;connectable=0;fillColor=none;top=0;left=0;bottom=0;right=0;align=left;spacingLeft=2;overflow=hidden;fontSize=11;hachureGap=4;fontFamily=Architects Daughter;fontSource=https%3A%2F%2Ffonts.googleapis.com%2Fcss%3Ffamily%3DArchitects%2BDaughter;labelBackgroundColor=none;rounded=0;" parent="1vJfrN8NMG1-H0iuWCPC-26" vertex="1">
          <mxGeometry x="36" width="84" height="22" as="geometry">
            <mxRectangle width="84" height="22" as="alternateBounds" />
          </mxGeometry>
        </mxCell>
        <mxCell id="1vJfrN8NMG1-H0iuWCPC-32" style="shape=tableRow;horizontal=0;startSize=0;swimlaneHead=0;swimlaneBody=0;fillColor=none;collapsible=0;dropTarget=0;points=[[0,0.5],[1,0.5]];portConstraint=eastwest;top=0;left=0;right=0;bottom=0;hachureGap=4;fontFamily=Architects Daughter;fontSource=https%3A%2F%2Ffonts.googleapis.com%2Fcss%3Ffamily%3DArchitects%2BDaughter;labelBackgroundColor=none;rounded=0;" parent="1vJfrN8NMG1-H0iuWCPC-1" vertex="1">
          <mxGeometry y="201" width="120" height="22" as="geometry" />
        </mxCell>
        <mxCell id="1vJfrN8NMG1-H0iuWCPC-33" value="string" style="shape=partialRectangle;connectable=0;fillColor=none;top=0;left=0;bottom=0;right=0;align=left;spacingLeft=2;overflow=hidden;fontSize=11;hachureGap=4;fontFamily=Architects Daughter;fontSource=https%3A%2F%2Ffonts.googleapis.com%2Fcss%3Ffamily%3DArchitects%2BDaughter;labelBackgroundColor=none;rounded=0;" parent="1vJfrN8NMG1-H0iuWCPC-32" vertex="1">
          <mxGeometry width="36" height="22" as="geometry">
            <mxRectangle width="36" height="22" as="alternateBounds" />
          </mxGeometry>
        </mxCell>
        <mxCell id="1vJfrN8NMG1-H0iuWCPC-34" value="Status" style="shape=partialRectangle;connectable=0;fillColor=none;top=0;left=0;bottom=0;right=0;align=left;spacingLeft=2;overflow=hidden;fontSize=11;hachureGap=4;fontFamily=Architects Daughter;fontSource=https%3A%2F%2Ffonts.googleapis.com%2Fcss%3Ffamily%3DArchitects%2BDaughter;labelBackgroundColor=none;rounded=0;" parent="1vJfrN8NMG1-H0iuWCPC-32" vertex="1">
          <mxGeometry x="36" width="84" height="22" as="geometry">
            <mxRectangle width="84" height="22" as="alternateBounds" />
          </mxGeometry>
        </mxCell>
        <mxCell id="1vJfrN8NMG1-H0iuWCPC-49" value="Departments" style="shape=table;startSize=25;container=1;collapsible=0;childLayout=tableLayout;fixedRows=1;rowLines=1;fontStyle=1;align=center;resizeLast=1;hachureGap=4;fontFamily=Architects Daughter;fontSource=https%3A%2F%2Ffonts.googleapis.com%2Fcss%3Ffamily%3DArchitects%2BDaughter;labelBackgroundColor=none;rounded=0;" parent="1" vertex="1">
          <mxGeometry x="1020" y="639" width="140" height="91" as="geometry" />
        </mxCell>
        <mxCell id="1vJfrN8NMG1-H0iuWCPC-50" style="shape=tableRow;horizontal=0;startSize=0;swimlaneHead=0;swimlaneBody=0;fillColor=none;collapsible=0;dropTarget=0;points=[[0,0.5],[1,0.5]];portConstraint=eastwest;top=0;left=0;right=0;bottom=0;hachureGap=4;fontFamily=Architects Daughter;fontSource=https%3A%2F%2Ffonts.googleapis.com%2Fcss%3Ffamily%3DArchitects%2BDaughter;labelBackgroundColor=none;rounded=0;" parent="1vJfrN8NMG1-H0iuWCPC-49" vertex="1">
          <mxGeometry y="25" width="140" height="22" as="geometry" />
        </mxCell>
        <mxCell id="1vJfrN8NMG1-H0iuWCPC-51" value="int" style="shape=partialRectangle;connectable=0;fillColor=none;top=0;left=0;bottom=0;right=0;align=left;spacingLeft=2;overflow=hidden;fontSize=11;hachureGap=4;fontFamily=Architects Daughter;fontSource=https%3A%2F%2Ffonts.googleapis.com%2Fcss%3Ffamily%3DArchitects%2BDaughter;labelBackgroundColor=none;rounded=0;" parent="1vJfrN8NMG1-H0iuWCPC-50" vertex="1">
          <mxGeometry width="36" height="22" as="geometry">
            <mxRectangle width="36" height="22" as="alternateBounds" />
          </mxGeometry>
        </mxCell>
        <mxCell id="1vJfrN8NMG1-H0iuWCPC-52" value="Department_ID" style="shape=partialRectangle;connectable=0;fillColor=none;top=0;left=0;bottom=0;right=0;align=left;spacingLeft=2;overflow=hidden;fontSize=11;hachureGap=4;fontFamily=Architects Daughter;fontSource=https%3A%2F%2Ffonts.googleapis.com%2Fcss%3Ffamily%3DArchitects%2BDaughter;labelBackgroundColor=none;rounded=0;" parent="1vJfrN8NMG1-H0iuWCPC-50" vertex="1">
          <mxGeometry x="36" width="104" height="22" as="geometry">
            <mxRectangle width="104" height="22" as="alternateBounds" />
          </mxGeometry>
        </mxCell>
        <mxCell id="1vJfrN8NMG1-H0iuWCPC-53" style="shape=tableRow;horizontal=0;startSize=0;swimlaneHead=0;swimlaneBody=0;fillColor=none;collapsible=0;dropTarget=0;points=[[0,0.5],[1,0.5]];portConstraint=eastwest;top=0;left=0;right=0;bottom=0;hachureGap=4;fontFamily=Architects Daughter;fontSource=https%3A%2F%2Ffonts.googleapis.com%2Fcss%3Ffamily%3DArchitects%2BDaughter;labelBackgroundColor=none;rounded=0;" parent="1vJfrN8NMG1-H0iuWCPC-49" vertex="1">
          <mxGeometry y="47" width="140" height="22" as="geometry" />
        </mxCell>
        <mxCell id="1vJfrN8NMG1-H0iuWCPC-54" value="string" style="shape=partialRectangle;connectable=0;fillColor=none;top=0;left=0;bottom=0;right=0;align=left;spacingLeft=2;overflow=hidden;fontSize=11;hachureGap=4;fontFamily=Architects Daughter;fontSource=https%3A%2F%2Ffonts.googleapis.com%2Fcss%3Ffamily%3DArchitects%2BDaughter;labelBackgroundColor=none;rounded=0;" parent="1vJfrN8NMG1-H0iuWCPC-53" vertex="1">
          <mxGeometry width="36" height="22" as="geometry">
            <mxRectangle width="36" height="22" as="alternateBounds" />
          </mxGeometry>
        </mxCell>
        <mxCell id="1vJfrN8NMG1-H0iuWCPC-55" value="Name" style="shape=partialRectangle;connectable=0;fillColor=none;top=0;left=0;bottom=0;right=0;align=left;spacingLeft=2;overflow=hidden;fontSize=11;hachureGap=4;fontFamily=Architects Daughter;fontSource=https%3A%2F%2Ffonts.googleapis.com%2Fcss%3Ffamily%3DArchitects%2BDaughter;labelBackgroundColor=none;rounded=0;" parent="1vJfrN8NMG1-H0iuWCPC-53" vertex="1">
          <mxGeometry x="36" width="104" height="22" as="geometry">
            <mxRectangle width="104" height="22" as="alternateBounds" />
          </mxGeometry>
        </mxCell>
        <mxCell id="1vJfrN8NMG1-H0iuWCPC-56" style="shape=tableRow;horizontal=0;startSize=0;swimlaneHead=0;swimlaneBody=0;fillColor=none;collapsible=0;dropTarget=0;points=[[0,0.5],[1,0.5]];portConstraint=eastwest;top=0;left=0;right=0;bottom=0;hachureGap=4;fontFamily=Architects Daughter;fontSource=https%3A%2F%2Ffonts.googleapis.com%2Fcss%3Ffamily%3DArchitects%2BDaughter;labelBackgroundColor=none;rounded=0;" parent="1vJfrN8NMG1-H0iuWCPC-49" vertex="1">
          <mxGeometry y="69" width="140" height="22" as="geometry" />
        </mxCell>
        <mxCell id="1vJfrN8NMG1-H0iuWCPC-57" value="string" style="shape=partialRectangle;connectable=0;fillColor=none;top=0;left=0;bottom=0;right=0;align=left;spacingLeft=2;overflow=hidden;fontSize=11;hachureGap=4;fontFamily=Architects Daughter;fontSource=https%3A%2F%2Ffonts.googleapis.com%2Fcss%3Ffamily%3DArchitects%2BDaughter;labelBackgroundColor=none;rounded=0;" parent="1vJfrN8NMG1-H0iuWCPC-56" vertex="1">
          <mxGeometry width="36" height="22" as="geometry">
            <mxRectangle width="36" height="22" as="alternateBounds" />
          </mxGeometry>
        </mxCell>
        <mxCell id="1vJfrN8NMG1-H0iuWCPC-58" value="Description" style="shape=partialRectangle;connectable=0;fillColor=none;top=0;left=0;bottom=0;right=0;align=left;spacingLeft=2;overflow=hidden;fontSize=11;hachureGap=4;fontFamily=Architects Daughter;fontSource=https%3A%2F%2Ffonts.googleapis.com%2Fcss%3Ffamily%3DArchitects%2BDaughter;labelBackgroundColor=none;rounded=0;" parent="1vJfrN8NMG1-H0iuWCPC-56" vertex="1">
          <mxGeometry x="36" width="104" height="22" as="geometry">
            <mxRectangle width="104" height="22" as="alternateBounds" />
          </mxGeometry>
        </mxCell>
        <mxCell id="1vJfrN8NMG1-H0iuWCPC-59" value="Training Groups" style="shape=table;startSize=25;container=1;collapsible=0;childLayout=tableLayout;fixedRows=1;rowLines=1;fontStyle=1;align=center;resizeLast=1;hachureGap=4;fontFamily=Architects Daughter;fontSource=https%3A%2F%2Ffonts.googleapis.com%2Fcss%3Ffamily%3DArchitects%2BDaughter;labelBackgroundColor=none;rounded=0;" parent="1" vertex="1">
          <mxGeometry x="320" y="702" width="160" height="91" as="geometry" />
        </mxCell>
        <mxCell id="1vJfrN8NMG1-H0iuWCPC-60" style="shape=tableRow;horizontal=0;startSize=0;swimlaneHead=0;swimlaneBody=0;fillColor=none;collapsible=0;dropTarget=0;points=[[0,0.5],[1,0.5]];portConstraint=eastwest;top=0;left=0;right=0;bottom=0;hachureGap=4;fontFamily=Architects Daughter;fontSource=https%3A%2F%2Ffonts.googleapis.com%2Fcss%3Ffamily%3DArchitects%2BDaughter;labelBackgroundColor=none;rounded=0;" parent="1vJfrN8NMG1-H0iuWCPC-59" vertex="1">
          <mxGeometry y="25" width="160" height="22" as="geometry" />
        </mxCell>
        <mxCell id="1vJfrN8NMG1-H0iuWCPC-61" value="int" style="shape=partialRectangle;connectable=0;fillColor=none;top=0;left=0;bottom=0;right=0;align=left;spacingLeft=2;overflow=hidden;fontSize=11;hachureGap=4;fontFamily=Architects Daughter;fontSource=https%3A%2F%2Ffonts.googleapis.com%2Fcss%3Ffamily%3DArchitects%2BDaughter;labelBackgroundColor=none;rounded=0;" parent="1vJfrN8NMG1-H0iuWCPC-60" vertex="1">
          <mxGeometry width="36" height="22" as="geometry">
            <mxRectangle width="36" height="22" as="alternateBounds" />
          </mxGeometry>
        </mxCell>
        <mxCell id="1vJfrN8NMG1-H0iuWCPC-62" value="Group_ID" style="shape=partialRectangle;connectable=0;fillColor=none;top=0;left=0;bottom=0;right=0;align=left;spacingLeft=2;overflow=hidden;fontSize=11;hachureGap=4;fontFamily=Architects Daughter;fontSource=https%3A%2F%2Ffonts.googleapis.com%2Fcss%3Ffamily%3DArchitects%2BDaughter;labelBackgroundColor=none;rounded=0;" parent="1vJfrN8NMG1-H0iuWCPC-60" vertex="1">
          <mxGeometry x="36" width="124" height="22" as="geometry">
            <mxRectangle width="124" height="22" as="alternateBounds" />
          </mxGeometry>
        </mxCell>
        <mxCell id="1vJfrN8NMG1-H0iuWCPC-63" style="shape=tableRow;horizontal=0;startSize=0;swimlaneHead=0;swimlaneBody=0;fillColor=none;collapsible=0;dropTarget=0;points=[[0,0.5],[1,0.5]];portConstraint=eastwest;top=0;left=0;right=0;bottom=0;hachureGap=4;fontFamily=Architects Daughter;fontSource=https%3A%2F%2Ffonts.googleapis.com%2Fcss%3Ffamily%3DArchitects%2BDaughter;labelBackgroundColor=none;rounded=0;" parent="1vJfrN8NMG1-H0iuWCPC-59" vertex="1">
          <mxGeometry y="47" width="160" height="22" as="geometry" />
        </mxCell>
        <mxCell id="1vJfrN8NMG1-H0iuWCPC-64" value="string" style="shape=partialRectangle;connectable=0;fillColor=none;top=0;left=0;bottom=0;right=0;align=left;spacingLeft=2;overflow=hidden;fontSize=11;hachureGap=4;fontFamily=Architects Daughter;fontSource=https%3A%2F%2Ffonts.googleapis.com%2Fcss%3Ffamily%3DArchitects%2BDaughter;labelBackgroundColor=none;rounded=0;" parent="1vJfrN8NMG1-H0iuWCPC-63" vertex="1">
          <mxGeometry width="36" height="22" as="geometry">
            <mxRectangle width="36" height="22" as="alternateBounds" />
          </mxGeometry>
        </mxCell>
        <mxCell id="1vJfrN8NMG1-H0iuWCPC-65" value="Name" style="shape=partialRectangle;connectable=0;fillColor=none;top=0;left=0;bottom=0;right=0;align=left;spacingLeft=2;overflow=hidden;fontSize=11;hachureGap=4;fontFamily=Architects Daughter;fontSource=https%3A%2F%2Ffonts.googleapis.com%2Fcss%3Ffamily%3DArchitects%2BDaughter;labelBackgroundColor=none;rounded=0;" parent="1vJfrN8NMG1-H0iuWCPC-63" vertex="1">
          <mxGeometry x="36" width="124" height="22" as="geometry">
            <mxRectangle width="124" height="22" as="alternateBounds" />
          </mxGeometry>
        </mxCell>
        <mxCell id="1vJfrN8NMG1-H0iuWCPC-66" style="shape=tableRow;horizontal=0;startSize=0;swimlaneHead=0;swimlaneBody=0;fillColor=none;collapsible=0;dropTarget=0;points=[[0,0.5],[1,0.5]];portConstraint=eastwest;top=0;left=0;right=0;bottom=0;hachureGap=4;fontFamily=Architects Daughter;fontSource=https%3A%2F%2Ffonts.googleapis.com%2Fcss%3Ffamily%3DArchitects%2BDaughter;labelBackgroundColor=none;rounded=0;" parent="1vJfrN8NMG1-H0iuWCPC-59" vertex="1">
          <mxGeometry y="69" width="160" height="22" as="geometry" />
        </mxCell>
        <mxCell id="1vJfrN8NMG1-H0iuWCPC-67" value="string" style="shape=partialRectangle;connectable=0;fillColor=none;top=0;left=0;bottom=0;right=0;align=left;spacingLeft=2;overflow=hidden;fontSize=11;hachureGap=4;fontFamily=Architects Daughter;fontSource=https%3A%2F%2Ffonts.googleapis.com%2Fcss%3Ffamily%3DArchitects%2BDaughter;labelBackgroundColor=none;rounded=0;" parent="1vJfrN8NMG1-H0iuWCPC-66" vertex="1">
          <mxGeometry width="36" height="22" as="geometry">
            <mxRectangle width="36" height="22" as="alternateBounds" />
          </mxGeometry>
        </mxCell>
        <mxCell id="1vJfrN8NMG1-H0iuWCPC-68" value="Description" style="shape=partialRectangle;connectable=0;fillColor=none;top=0;left=0;bottom=0;right=0;align=left;spacingLeft=2;overflow=hidden;fontSize=11;hachureGap=4;fontFamily=Architects Daughter;fontSource=https%3A%2F%2Ffonts.googleapis.com%2Fcss%3Ffamily%3DArchitects%2BDaughter;labelBackgroundColor=none;rounded=0;" parent="1vJfrN8NMG1-H0iuWCPC-66" vertex="1">
          <mxGeometry x="36" width="124" height="22" as="geometry">
            <mxRectangle width="124" height="22" as="alternateBounds" />
          </mxGeometry>
        </mxCell>
        <mxCell id="1vJfrN8NMG1-H0iuWCPC-69" value="Training Courses" style="shape=table;startSize=25;container=1;collapsible=0;childLayout=tableLayout;fixedRows=1;rowLines=1;fontStyle=1;align=center;resizeLast=1;hachureGap=4;fontFamily=Architects Daughter;fontSource=https%3A%2F%2Ffonts.googleapis.com%2Fcss%3Ffamily%3DArchitects%2BDaughter;labelBackgroundColor=none;rounded=0;" parent="1" vertex="1">
          <mxGeometry x="320" y="416" width="160" height="223" as="geometry" />
        </mxCell>
        <mxCell id="1vJfrN8NMG1-H0iuWCPC-70" style="shape=tableRow;horizontal=0;startSize=0;swimlaneHead=0;swimlaneBody=0;fillColor=none;collapsible=0;dropTarget=0;points=[[0,0.5],[1,0.5]];portConstraint=eastwest;top=0;left=0;right=0;bottom=0;hachureGap=4;fontFamily=Architects Daughter;fontSource=https%3A%2F%2Ffonts.googleapis.com%2Fcss%3Ffamily%3DArchitects%2BDaughter;labelBackgroundColor=none;rounded=0;" parent="1vJfrN8NMG1-H0iuWCPC-69" vertex="1">
          <mxGeometry y="25" width="160" height="22" as="geometry" />
        </mxCell>
        <mxCell id="1vJfrN8NMG1-H0iuWCPC-71" value="int" style="shape=partialRectangle;connectable=0;fillColor=none;top=0;left=0;bottom=0;right=0;align=left;spacingLeft=2;overflow=hidden;fontSize=11;hachureGap=4;fontFamily=Architects Daughter;fontSource=https%3A%2F%2Ffonts.googleapis.com%2Fcss%3Ffamily%3DArchitects%2BDaughter;labelBackgroundColor=none;rounded=0;" parent="1vJfrN8NMG1-H0iuWCPC-70" vertex="1">
          <mxGeometry width="36" height="22" as="geometry">
            <mxRectangle width="36" height="22" as="alternateBounds" />
          </mxGeometry>
        </mxCell>
        <mxCell id="1vJfrN8NMG1-H0iuWCPC-72" value="Course_ID" style="shape=partialRectangle;connectable=0;fillColor=none;top=0;left=0;bottom=0;right=0;align=left;spacingLeft=2;overflow=hidden;fontSize=11;hachureGap=4;fontFamily=Architects Daughter;fontSource=https%3A%2F%2Ffonts.googleapis.com%2Fcss%3Ffamily%3DArchitects%2BDaughter;labelBackgroundColor=none;rounded=0;" parent="1vJfrN8NMG1-H0iuWCPC-70" vertex="1">
          <mxGeometry x="36" width="124" height="22" as="geometry">
            <mxRectangle width="124" height="22" as="alternateBounds" />
          </mxGeometry>
        </mxCell>
        <mxCell id="1vJfrN8NMG1-H0iuWCPC-73" style="shape=tableRow;horizontal=0;startSize=0;swimlaneHead=0;swimlaneBody=0;fillColor=none;collapsible=0;dropTarget=0;points=[[0,0.5],[1,0.5]];portConstraint=eastwest;top=0;left=0;right=0;bottom=0;hachureGap=4;fontFamily=Architects Daughter;fontSource=https%3A%2F%2Ffonts.googleapis.com%2Fcss%3Ffamily%3DArchitects%2BDaughter;labelBackgroundColor=none;rounded=0;" parent="1vJfrN8NMG1-H0iuWCPC-69" vertex="1">
          <mxGeometry y="47" width="160" height="22" as="geometry" />
        </mxCell>
        <mxCell id="1vJfrN8NMG1-H0iuWCPC-74" value="int" style="shape=partialRectangle;connectable=0;fillColor=none;top=0;left=0;bottom=0;right=0;align=left;spacingLeft=2;overflow=hidden;fontSize=11;hachureGap=4;fontFamily=Architects Daughter;fontSource=https%3A%2F%2Ffonts.googleapis.com%2Fcss%3Ffamily%3DArchitects%2BDaughter;labelBackgroundColor=none;rounded=0;" parent="1vJfrN8NMG1-H0iuWCPC-73" vertex="1">
          <mxGeometry width="36" height="22" as="geometry">
            <mxRectangle width="36" height="22" as="alternateBounds" />
          </mxGeometry>
        </mxCell>
        <mxCell id="1vJfrN8NMG1-H0iuWCPC-75" value="Course_Group" style="shape=partialRectangle;connectable=0;fillColor=none;top=0;left=0;bottom=0;right=0;align=left;spacingLeft=2;overflow=hidden;fontSize=11;hachureGap=4;fontFamily=Architects Daughter;fontSource=https%3A%2F%2Ffonts.googleapis.com%2Fcss%3Ffamily%3DArchitects%2BDaughter;labelBackgroundColor=none;rounded=0;" parent="1vJfrN8NMG1-H0iuWCPC-73" vertex="1">
          <mxGeometry x="36" width="124" height="22" as="geometry">
            <mxRectangle width="124" height="22" as="alternateBounds" />
          </mxGeometry>
        </mxCell>
        <mxCell id="1vJfrN8NMG1-H0iuWCPC-76" style="shape=tableRow;horizontal=0;startSize=0;swimlaneHead=0;swimlaneBody=0;fillColor=none;collapsible=0;dropTarget=0;points=[[0,0.5],[1,0.5]];portConstraint=eastwest;top=0;left=0;right=0;bottom=0;hachureGap=4;fontFamily=Architects Daughter;fontSource=https%3A%2F%2Ffonts.googleapis.com%2Fcss%3Ffamily%3DArchitects%2BDaughter;labelBackgroundColor=none;rounded=0;" parent="1vJfrN8NMG1-H0iuWCPC-69" vertex="1">
          <mxGeometry y="69" width="160" height="22" as="geometry" />
        </mxCell>
        <mxCell id="1vJfrN8NMG1-H0iuWCPC-77" value="string" style="shape=partialRectangle;connectable=0;fillColor=none;top=0;left=0;bottom=0;right=0;align=left;spacingLeft=2;overflow=hidden;fontSize=11;hachureGap=4;fontFamily=Architects Daughter;fontSource=https%3A%2F%2Ffonts.googleapis.com%2Fcss%3Ffamily%3DArchitects%2BDaughter;labelBackgroundColor=none;rounded=0;" parent="1vJfrN8NMG1-H0iuWCPC-76" vertex="1">
          <mxGeometry width="36" height="22" as="geometry">
            <mxRectangle width="36" height="22" as="alternateBounds" />
          </mxGeometry>
        </mxCell>
        <mxCell id="1vJfrN8NMG1-H0iuWCPC-78" value="Name" style="shape=partialRectangle;connectable=0;fillColor=none;top=0;left=0;bottom=0;right=0;align=left;spacingLeft=2;overflow=hidden;fontSize=11;hachureGap=4;fontFamily=Architects Daughter;fontSource=https%3A%2F%2Ffonts.googleapis.com%2Fcss%3Ffamily%3DArchitects%2BDaughter;labelBackgroundColor=none;rounded=0;" parent="1vJfrN8NMG1-H0iuWCPC-76" vertex="1">
          <mxGeometry x="36" width="124" height="22" as="geometry">
            <mxRectangle width="124" height="22" as="alternateBounds" />
          </mxGeometry>
        </mxCell>
        <mxCell id="1vJfrN8NMG1-H0iuWCPC-79" style="shape=tableRow;horizontal=0;startSize=0;swimlaneHead=0;swimlaneBody=0;fillColor=none;collapsible=0;dropTarget=0;points=[[0,0.5],[1,0.5]];portConstraint=eastwest;top=0;left=0;right=0;bottom=0;hachureGap=4;fontFamily=Architects Daughter;fontSource=https%3A%2F%2Ffonts.googleapis.com%2Fcss%3Ffamily%3DArchitects%2BDaughter;labelBackgroundColor=none;rounded=0;" parent="1vJfrN8NMG1-H0iuWCPC-69" vertex="1">
          <mxGeometry y="91" width="160" height="22" as="geometry" />
        </mxCell>
        <mxCell id="1vJfrN8NMG1-H0iuWCPC-80" value="string" style="shape=partialRectangle;connectable=0;fillColor=none;top=0;left=0;bottom=0;right=0;align=left;spacingLeft=2;overflow=hidden;fontSize=11;hachureGap=4;fontFamily=Architects Daughter;fontSource=https%3A%2F%2Ffonts.googleapis.com%2Fcss%3Ffamily%3DArchitects%2BDaughter;labelBackgroundColor=none;rounded=0;" parent="1vJfrN8NMG1-H0iuWCPC-79" vertex="1">
          <mxGeometry width="36" height="22" as="geometry">
            <mxRectangle width="36" height="22" as="alternateBounds" />
          </mxGeometry>
        </mxCell>
        <mxCell id="1vJfrN8NMG1-H0iuWCPC-81" value="Description" style="shape=partialRectangle;connectable=0;fillColor=none;top=0;left=0;bottom=0;right=0;align=left;spacingLeft=2;overflow=hidden;fontSize=11;hachureGap=4;fontFamily=Architects Daughter;fontSource=https%3A%2F%2Ffonts.googleapis.com%2Fcss%3Ffamily%3DArchitects%2BDaughter;labelBackgroundColor=none;rounded=0;" parent="1vJfrN8NMG1-H0iuWCPC-79" vertex="1">
          <mxGeometry x="36" width="124" height="22" as="geometry">
            <mxRectangle width="124" height="22" as="alternateBounds" />
          </mxGeometry>
        </mxCell>
        <mxCell id="1vJfrN8NMG1-H0iuWCPC-82" style="shape=tableRow;horizontal=0;startSize=0;swimlaneHead=0;swimlaneBody=0;fillColor=none;collapsible=0;dropTarget=0;points=[[0,0.5],[1,0.5]];portConstraint=eastwest;top=0;left=0;right=0;bottom=0;hachureGap=4;fontFamily=Architects Daughter;fontSource=https%3A%2F%2Ffonts.googleapis.com%2Fcss%3Ffamily%3DArchitects%2BDaughter;labelBackgroundColor=none;rounded=0;" parent="1vJfrN8NMG1-H0iuWCPC-69" vertex="1">
          <mxGeometry y="113" width="160" height="22" as="geometry" />
        </mxCell>
        <mxCell id="1vJfrN8NMG1-H0iuWCPC-83" value="int" style="shape=partialRectangle;connectable=0;fillColor=none;top=0;left=0;bottom=0;right=0;align=left;spacingLeft=2;overflow=hidden;fontSize=11;hachureGap=4;fontFamily=Architects Daughter;fontSource=https%3A%2F%2Ffonts.googleapis.com%2Fcss%3Ffamily%3DArchitects%2BDaughter;labelBackgroundColor=none;rounded=0;" parent="1vJfrN8NMG1-H0iuWCPC-82" vertex="1">
          <mxGeometry width="36" height="22" as="geometry">
            <mxRectangle width="36" height="22" as="alternateBounds" />
          </mxGeometry>
        </mxCell>
        <mxCell id="1vJfrN8NMG1-H0iuWCPC-84" value="Instructor" style="shape=partialRectangle;connectable=0;fillColor=none;top=0;left=0;bottom=0;right=0;align=left;spacingLeft=2;overflow=hidden;fontSize=11;hachureGap=4;fontFamily=Architects Daughter;fontSource=https%3A%2F%2Ffonts.googleapis.com%2Fcss%3Ffamily%3DArchitects%2BDaughter;labelBackgroundColor=none;rounded=0;" parent="1vJfrN8NMG1-H0iuWCPC-82" vertex="1">
          <mxGeometry x="36" width="124" height="22" as="geometry">
            <mxRectangle width="124" height="22" as="alternateBounds" />
          </mxGeometry>
        </mxCell>
        <mxCell id="1vJfrN8NMG1-H0iuWCPC-85" style="shape=tableRow;horizontal=0;startSize=0;swimlaneHead=0;swimlaneBody=0;fillColor=none;collapsible=0;dropTarget=0;points=[[0,0.5],[1,0.5]];portConstraint=eastwest;top=0;left=0;right=0;bottom=0;hachureGap=4;fontFamily=Architects Daughter;fontSource=https%3A%2F%2Ffonts.googleapis.com%2Fcss%3Ffamily%3DArchitects%2BDaughter;labelBackgroundColor=none;rounded=0;" parent="1vJfrN8NMG1-H0iuWCPC-69" vertex="1">
          <mxGeometry y="135" width="160" height="22" as="geometry" />
        </mxCell>
        <mxCell id="1vJfrN8NMG1-H0iuWCPC-86" value="date" style="shape=partialRectangle;connectable=0;fillColor=none;top=0;left=0;bottom=0;right=0;align=left;spacingLeft=2;overflow=hidden;fontSize=11;hachureGap=4;fontFamily=Architects Daughter;fontSource=https%3A%2F%2Ffonts.googleapis.com%2Fcss%3Ffamily%3DArchitects%2BDaughter;labelBackgroundColor=none;rounded=0;" parent="1vJfrN8NMG1-H0iuWCPC-85" vertex="1">
          <mxGeometry width="36" height="22" as="geometry">
            <mxRectangle width="36" height="22" as="alternateBounds" />
          </mxGeometry>
        </mxCell>
        <mxCell id="1vJfrN8NMG1-H0iuWCPC-87" value="Date_Start" style="shape=partialRectangle;connectable=0;fillColor=none;top=0;left=0;bottom=0;right=0;align=left;spacingLeft=2;overflow=hidden;fontSize=11;hachureGap=4;fontFamily=Architects Daughter;fontSource=https%3A%2F%2Ffonts.googleapis.com%2Fcss%3Ffamily%3DArchitects%2BDaughter;labelBackgroundColor=none;rounded=0;" parent="1vJfrN8NMG1-H0iuWCPC-85" vertex="1">
          <mxGeometry x="36" width="124" height="22" as="geometry">
            <mxRectangle width="124" height="22" as="alternateBounds" />
          </mxGeometry>
        </mxCell>
        <mxCell id="1vJfrN8NMG1-H0iuWCPC-88" style="shape=tableRow;horizontal=0;startSize=0;swimlaneHead=0;swimlaneBody=0;fillColor=none;collapsible=0;dropTarget=0;points=[[0,0.5],[1,0.5]];portConstraint=eastwest;top=0;left=0;right=0;bottom=0;hachureGap=4;fontFamily=Architects Daughter;fontSource=https%3A%2F%2Ffonts.googleapis.com%2Fcss%3Ffamily%3DArchitects%2BDaughter;labelBackgroundColor=none;rounded=0;" parent="1vJfrN8NMG1-H0iuWCPC-69" vertex="1">
          <mxGeometry y="157" width="160" height="22" as="geometry" />
        </mxCell>
        <mxCell id="1vJfrN8NMG1-H0iuWCPC-89" value="date" style="shape=partialRectangle;connectable=0;fillColor=none;top=0;left=0;bottom=0;right=0;align=left;spacingLeft=2;overflow=hidden;fontSize=11;hachureGap=4;fontFamily=Architects Daughter;fontSource=https%3A%2F%2Ffonts.googleapis.com%2Fcss%3Ffamily%3DArchitects%2BDaughter;labelBackgroundColor=none;rounded=0;" parent="1vJfrN8NMG1-H0iuWCPC-88" vertex="1">
          <mxGeometry width="36" height="22" as="geometry">
            <mxRectangle width="36" height="22" as="alternateBounds" />
          </mxGeometry>
        </mxCell>
        <mxCell id="1vJfrN8NMG1-H0iuWCPC-90" value="Date_End" style="shape=partialRectangle;connectable=0;fillColor=none;top=0;left=0;bottom=0;right=0;align=left;spacingLeft=2;overflow=hidden;fontSize=11;hachureGap=4;fontFamily=Architects Daughter;fontSource=https%3A%2F%2Ffonts.googleapis.com%2Fcss%3Ffamily%3DArchitects%2BDaughter;labelBackgroundColor=none;rounded=0;" parent="1vJfrN8NMG1-H0iuWCPC-88" vertex="1">
          <mxGeometry x="36" width="124" height="22" as="geometry">
            <mxRectangle width="124" height="22" as="alternateBounds" />
          </mxGeometry>
        </mxCell>
        <mxCell id="1vJfrN8NMG1-H0iuWCPC-91" style="shape=tableRow;horizontal=0;startSize=0;swimlaneHead=0;swimlaneBody=0;fillColor=none;collapsible=0;dropTarget=0;points=[[0,0.5],[1,0.5]];portConstraint=eastwest;top=0;left=0;right=0;bottom=0;hachureGap=4;fontFamily=Architects Daughter;fontSource=https%3A%2F%2Ffonts.googleapis.com%2Fcss%3Ffamily%3DArchitects%2BDaughter;labelBackgroundColor=none;rounded=0;" parent="1vJfrN8NMG1-H0iuWCPC-69" vertex="1">
          <mxGeometry y="179" width="160" height="22" as="geometry" />
        </mxCell>
        <mxCell id="1vJfrN8NMG1-H0iuWCPC-92" value="int" style="shape=partialRectangle;connectable=0;fillColor=none;top=0;left=0;bottom=0;right=0;align=left;spacingLeft=2;overflow=hidden;fontSize=11;hachureGap=4;fontFamily=Architects Daughter;fontSource=https%3A%2F%2Ffonts.googleapis.com%2Fcss%3Ffamily%3DArchitects%2BDaughter;labelBackgroundColor=none;rounded=0;" parent="1vJfrN8NMG1-H0iuWCPC-91" vertex="1">
          <mxGeometry width="36" height="22" as="geometry">
            <mxRectangle width="36" height="22" as="alternateBounds" />
          </mxGeometry>
        </mxCell>
        <mxCell id="1vJfrN8NMG1-H0iuWCPC-93" value="Duration" style="shape=partialRectangle;connectable=0;fillColor=none;top=0;left=0;bottom=0;right=0;align=left;spacingLeft=2;overflow=hidden;fontSize=11;hachureGap=4;fontFamily=Architects Daughter;fontSource=https%3A%2F%2Ffonts.googleapis.com%2Fcss%3Ffamily%3DArchitects%2BDaughter;labelBackgroundColor=none;rounded=0;" parent="1vJfrN8NMG1-H0iuWCPC-91" vertex="1">
          <mxGeometry x="36" width="124" height="22" as="geometry">
            <mxRectangle width="124" height="22" as="alternateBounds" />
          </mxGeometry>
        </mxCell>
        <mxCell id="1vJfrN8NMG1-H0iuWCPC-94" style="shape=tableRow;horizontal=0;startSize=0;swimlaneHead=0;swimlaneBody=0;fillColor=none;collapsible=0;dropTarget=0;points=[[0,0.5],[1,0.5]];portConstraint=eastwest;top=0;left=0;right=0;bottom=0;hachureGap=4;fontFamily=Architects Daughter;fontSource=https%3A%2F%2Ffonts.googleapis.com%2Fcss%3Ffamily%3DArchitects%2BDaughter;labelBackgroundColor=none;rounded=0;" parent="1vJfrN8NMG1-H0iuWCPC-69" vertex="1">
          <mxGeometry y="201" width="160" height="22" as="geometry" />
        </mxCell>
        <mxCell id="1vJfrN8NMG1-H0iuWCPC-95" value="string" style="shape=partialRectangle;connectable=0;fillColor=none;top=0;left=0;bottom=0;right=0;align=left;spacingLeft=2;overflow=hidden;fontSize=11;hachureGap=4;fontFamily=Architects Daughter;fontSource=https%3A%2F%2Ffonts.googleapis.com%2Fcss%3Ffamily%3DArchitects%2BDaughter;labelBackgroundColor=none;rounded=0;" parent="1vJfrN8NMG1-H0iuWCPC-94" vertex="1">
          <mxGeometry width="36" height="22" as="geometry">
            <mxRectangle width="36" height="22" as="alternateBounds" />
          </mxGeometry>
        </mxCell>
        <mxCell id="1vJfrN8NMG1-H0iuWCPC-96" value="Status" style="shape=partialRectangle;connectable=0;fillColor=none;top=0;left=0;bottom=0;right=0;align=left;spacingLeft=2;overflow=hidden;fontSize=11;hachureGap=4;fontFamily=Architects Daughter;fontSource=https%3A%2F%2Ffonts.googleapis.com%2Fcss%3Ffamily%3DArchitects%2BDaughter;labelBackgroundColor=none;rounded=0;" parent="1vJfrN8NMG1-H0iuWCPC-94" vertex="1">
          <mxGeometry x="36" width="124" height="22" as="geometry">
            <mxRectangle width="124" height="22" as="alternateBounds" />
          </mxGeometry>
        </mxCell>
        <mxCell id="1vJfrN8NMG1-H0iuWCPC-97" value="Enrollments" style="shape=table;startSize=25;container=1;collapsible=0;childLayout=tableLayout;fixedRows=1;rowLines=1;fontStyle=1;align=center;resizeLast=1;hachureGap=4;fontFamily=Architects Daughter;fontSource=https%3A%2F%2Ffonts.googleapis.com%2Fcss%3Ffamily%3DArchitects%2BDaughter;labelBackgroundColor=none;rounded=0;" parent="1" vertex="1">
          <mxGeometry x="560" y="415" width="140" height="135" as="geometry" />
        </mxCell>
        <mxCell id="1vJfrN8NMG1-H0iuWCPC-98" style="shape=tableRow;horizontal=0;startSize=0;swimlaneHead=0;swimlaneBody=0;fillColor=none;collapsible=0;dropTarget=0;points=[[0,0.5],[1,0.5]];portConstraint=eastwest;top=0;left=0;right=0;bottom=0;hachureGap=4;fontFamily=Architects Daughter;fontSource=https%3A%2F%2Ffonts.googleapis.com%2Fcss%3Ffamily%3DArchitects%2BDaughter;labelBackgroundColor=none;rounded=0;" parent="1vJfrN8NMG1-H0iuWCPC-97" vertex="1">
          <mxGeometry y="25" width="140" height="22" as="geometry" />
        </mxCell>
        <mxCell id="1vJfrN8NMG1-H0iuWCPC-99" value="int" style="shape=partialRectangle;connectable=0;fillColor=none;top=0;left=0;bottom=0;right=0;align=left;spacingLeft=2;overflow=hidden;fontSize=11;hachureGap=4;fontFamily=Architects Daughter;fontSource=https%3A%2F%2Ffonts.googleapis.com%2Fcss%3Ffamily%3DArchitects%2BDaughter;labelBackgroundColor=none;rounded=0;" parent="1vJfrN8NMG1-H0iuWCPC-98" vertex="1">
          <mxGeometry width="36" height="22" as="geometry">
            <mxRectangle width="36" height="22" as="alternateBounds" />
          </mxGeometry>
        </mxCell>
        <mxCell id="1vJfrN8NMG1-H0iuWCPC-100" value="Enrollment_ID" style="shape=partialRectangle;connectable=0;fillColor=none;top=0;left=0;bottom=0;right=0;align=left;spacingLeft=2;overflow=hidden;fontSize=11;hachureGap=4;fontFamily=Architects Daughter;fontSource=https%3A%2F%2Ffonts.googleapis.com%2Fcss%3Ffamily%3DArchitects%2BDaughter;labelBackgroundColor=none;rounded=0;" parent="1vJfrN8NMG1-H0iuWCPC-98" vertex="1">
          <mxGeometry x="36" width="104" height="22" as="geometry">
            <mxRectangle width="104" height="22" as="alternateBounds" />
          </mxGeometry>
        </mxCell>
        <mxCell id="1vJfrN8NMG1-H0iuWCPC-101" style="shape=tableRow;horizontal=0;startSize=0;swimlaneHead=0;swimlaneBody=0;fillColor=none;collapsible=0;dropTarget=0;points=[[0,0.5],[1,0.5]];portConstraint=eastwest;top=0;left=0;right=0;bottom=0;hachureGap=4;fontFamily=Architects Daughter;fontSource=https%3A%2F%2Ffonts.googleapis.com%2Fcss%3Ffamily%3DArchitects%2BDaughter;labelBackgroundColor=none;rounded=0;" parent="1vJfrN8NMG1-H0iuWCPC-97" vertex="1">
          <mxGeometry y="47" width="140" height="22" as="geometry" />
        </mxCell>
        <mxCell id="1vJfrN8NMG1-H0iuWCPC-102" value="int" style="shape=partialRectangle;connectable=0;fillColor=none;top=0;left=0;bottom=0;right=0;align=left;spacingLeft=2;overflow=hidden;fontSize=11;hachureGap=4;fontFamily=Architects Daughter;fontSource=https%3A%2F%2Ffonts.googleapis.com%2Fcss%3Ffamily%3DArchitects%2BDaughter;labelBackgroundColor=none;rounded=0;" parent="1vJfrN8NMG1-H0iuWCPC-101" vertex="1">
          <mxGeometry width="36" height="22" as="geometry">
            <mxRectangle width="36" height="22" as="alternateBounds" />
          </mxGeometry>
        </mxCell>
        <mxCell id="1vJfrN8NMG1-H0iuWCPC-103" value="Course" style="shape=partialRectangle;connectable=0;fillColor=none;top=0;left=0;bottom=0;right=0;align=left;spacingLeft=2;overflow=hidden;fontSize=11;hachureGap=4;fontFamily=Architects Daughter;fontSource=https%3A%2F%2Ffonts.googleapis.com%2Fcss%3Ffamily%3DArchitects%2BDaughter;labelBackgroundColor=none;rounded=0;" parent="1vJfrN8NMG1-H0iuWCPC-101" vertex="1">
          <mxGeometry x="36" width="104" height="22" as="geometry">
            <mxRectangle width="104" height="22" as="alternateBounds" />
          </mxGeometry>
        </mxCell>
        <mxCell id="1vJfrN8NMG1-H0iuWCPC-104" style="shape=tableRow;horizontal=0;startSize=0;swimlaneHead=0;swimlaneBody=0;fillColor=none;collapsible=0;dropTarget=0;points=[[0,0.5],[1,0.5]];portConstraint=eastwest;top=0;left=0;right=0;bottom=0;hachureGap=4;fontFamily=Architects Daughter;fontSource=https%3A%2F%2Ffonts.googleapis.com%2Fcss%3Ffamily%3DArchitects%2BDaughter;labelBackgroundColor=none;rounded=0;" parent="1vJfrN8NMG1-H0iuWCPC-97" vertex="1">
          <mxGeometry y="69" width="140" height="22" as="geometry" />
        </mxCell>
        <mxCell id="1vJfrN8NMG1-H0iuWCPC-105" value="int" style="shape=partialRectangle;connectable=0;fillColor=none;top=0;left=0;bottom=0;right=0;align=left;spacingLeft=2;overflow=hidden;fontSize=11;hachureGap=4;fontFamily=Architects Daughter;fontSource=https%3A%2F%2Ffonts.googleapis.com%2Fcss%3Ffamily%3DArchitects%2BDaughter;labelBackgroundColor=none;rounded=0;" parent="1vJfrN8NMG1-H0iuWCPC-104" vertex="1">
          <mxGeometry width="36" height="22" as="geometry">
            <mxRectangle width="36" height="22" as="alternateBounds" />
          </mxGeometry>
        </mxCell>
        <mxCell id="1vJfrN8NMG1-H0iuWCPC-106" value="Student" style="shape=partialRectangle;connectable=0;fillColor=none;top=0;left=0;bottom=0;right=0;align=left;spacingLeft=2;overflow=hidden;fontSize=11;hachureGap=4;fontFamily=Architects Daughter;fontSource=https%3A%2F%2Ffonts.googleapis.com%2Fcss%3Ffamily%3DArchitects%2BDaughter;labelBackgroundColor=none;rounded=0;" parent="1vJfrN8NMG1-H0iuWCPC-104" vertex="1">
          <mxGeometry x="36" width="104" height="22" as="geometry">
            <mxRectangle width="104" height="22" as="alternateBounds" />
          </mxGeometry>
        </mxCell>
        <mxCell id="1vJfrN8NMG1-H0iuWCPC-107" style="shape=tableRow;horizontal=0;startSize=0;swimlaneHead=0;swimlaneBody=0;fillColor=none;collapsible=0;dropTarget=0;points=[[0,0.5],[1,0.5]];portConstraint=eastwest;top=0;left=0;right=0;bottom=0;hachureGap=4;fontFamily=Architects Daughter;fontSource=https%3A%2F%2Ffonts.googleapis.com%2Fcss%3Ffamily%3DArchitects%2BDaughter;labelBackgroundColor=none;rounded=0;" parent="1vJfrN8NMG1-H0iuWCPC-97" vertex="1">
          <mxGeometry y="91" width="140" height="22" as="geometry" />
        </mxCell>
        <mxCell id="1vJfrN8NMG1-H0iuWCPC-108" value="date" style="shape=partialRectangle;connectable=0;fillColor=none;top=0;left=0;bottom=0;right=0;align=left;spacingLeft=2;overflow=hidden;fontSize=11;hachureGap=4;fontFamily=Architects Daughter;fontSource=https%3A%2F%2Ffonts.googleapis.com%2Fcss%3Ffamily%3DArchitects%2BDaughter;labelBackgroundColor=none;rounded=0;" parent="1vJfrN8NMG1-H0iuWCPC-107" vertex="1">
          <mxGeometry width="36" height="22" as="geometry">
            <mxRectangle width="36" height="22" as="alternateBounds" />
          </mxGeometry>
        </mxCell>
        <mxCell id="1vJfrN8NMG1-H0iuWCPC-109" value="Enrollment_Date" style="shape=partialRectangle;connectable=0;fillColor=none;top=0;left=0;bottom=0;right=0;align=left;spacingLeft=2;overflow=hidden;fontSize=11;hachureGap=4;fontFamily=Architects Daughter;fontSource=https%3A%2F%2Ffonts.googleapis.com%2Fcss%3Ffamily%3DArchitects%2BDaughter;labelBackgroundColor=none;rounded=0;" parent="1vJfrN8NMG1-H0iuWCPC-107" vertex="1">
          <mxGeometry x="36" width="104" height="22" as="geometry">
            <mxRectangle width="104" height="22" as="alternateBounds" />
          </mxGeometry>
        </mxCell>
        <mxCell id="1vJfrN8NMG1-H0iuWCPC-113" style="shape=tableRow;horizontal=0;startSize=0;swimlaneHead=0;swimlaneBody=0;fillColor=none;collapsible=0;dropTarget=0;points=[[0,0.5],[1,0.5]];portConstraint=eastwest;top=0;left=0;right=0;bottom=0;hachureGap=4;fontFamily=Architects Daughter;fontSource=https%3A%2F%2Ffonts.googleapis.com%2Fcss%3Ffamily%3DArchitects%2BDaughter;labelBackgroundColor=none;rounded=0;" parent="1vJfrN8NMG1-H0iuWCPC-97" vertex="1">
          <mxGeometry y="113" width="140" height="22" as="geometry" />
        </mxCell>
        <mxCell id="1vJfrN8NMG1-H0iuWCPC-114" value="string" style="shape=partialRectangle;connectable=0;fillColor=none;top=0;left=0;bottom=0;right=0;align=left;spacingLeft=2;overflow=hidden;fontSize=11;hachureGap=4;fontFamily=Architects Daughter;fontSource=https%3A%2F%2Ffonts.googleapis.com%2Fcss%3Ffamily%3DArchitects%2BDaughter;labelBackgroundColor=none;rounded=0;" parent="1vJfrN8NMG1-H0iuWCPC-113" vertex="1">
          <mxGeometry width="36" height="22" as="geometry">
            <mxRectangle width="36" height="22" as="alternateBounds" />
          </mxGeometry>
        </mxCell>
        <mxCell id="1vJfrN8NMG1-H0iuWCPC-115" value="Status" style="shape=partialRectangle;connectable=0;fillColor=none;top=0;left=0;bottom=0;right=0;align=left;spacingLeft=2;overflow=hidden;fontSize=11;hachureGap=4;fontFamily=Architects Daughter;fontSource=https%3A%2F%2Ffonts.googleapis.com%2Fcss%3Ffamily%3DArchitects%2BDaughter;labelBackgroundColor=none;rounded=0;" parent="1vJfrN8NMG1-H0iuWCPC-113" vertex="1">
          <mxGeometry x="36" width="104" height="22" as="geometry">
            <mxRectangle width="104" height="22" as="alternateBounds" />
          </mxGeometry>
        </mxCell>
        <mxCell id="1vJfrN8NMG1-H0iuWCPC-135" value="Reports" style="shape=table;startSize=25;container=1;collapsible=0;childLayout=tableLayout;fixedRows=1;rowLines=1;fontStyle=1;align=center;resizeLast=1;hachureGap=4;fontFamily=Architects Daughter;fontSource=https%3A%2F%2Ffonts.googleapis.com%2Fcss%3Ffamily%3DArchitects%2BDaughter;labelBackgroundColor=none;rounded=0;" parent="1" vertex="1">
          <mxGeometry x="1240" y="280" width="130" height="113" as="geometry" />
        </mxCell>
        <mxCell id="1vJfrN8NMG1-H0iuWCPC-136" style="shape=tableRow;horizontal=0;startSize=0;swimlaneHead=0;swimlaneBody=0;fillColor=none;collapsible=0;dropTarget=0;points=[[0,0.5],[1,0.5]];portConstraint=eastwest;top=0;left=0;right=0;bottom=0;hachureGap=4;fontFamily=Architects Daughter;fontSource=https%3A%2F%2Ffonts.googleapis.com%2Fcss%3Ffamily%3DArchitects%2BDaughter;labelBackgroundColor=none;rounded=0;" parent="1vJfrN8NMG1-H0iuWCPC-135" vertex="1">
          <mxGeometry y="25" width="130" height="22" as="geometry" />
        </mxCell>
        <mxCell id="1vJfrN8NMG1-H0iuWCPC-137" value="int" style="shape=partialRectangle;connectable=0;fillColor=none;top=0;left=0;bottom=0;right=0;align=left;spacingLeft=2;overflow=hidden;fontSize=11;hachureGap=4;fontFamily=Architects Daughter;fontSource=https%3A%2F%2Ffonts.googleapis.com%2Fcss%3Ffamily%3DArchitects%2BDaughter;labelBackgroundColor=none;rounded=0;" parent="1vJfrN8NMG1-H0iuWCPC-136" vertex="1">
          <mxGeometry width="36" height="22" as="geometry">
            <mxRectangle width="36" height="22" as="alternateBounds" />
          </mxGeometry>
        </mxCell>
        <mxCell id="1vJfrN8NMG1-H0iuWCPC-138" value="Report_ID" style="shape=partialRectangle;connectable=0;fillColor=none;top=0;left=0;bottom=0;right=0;align=left;spacingLeft=2;overflow=hidden;fontSize=11;hachureGap=4;fontFamily=Architects Daughter;fontSource=https%3A%2F%2Ffonts.googleapis.com%2Fcss%3Ffamily%3DArchitects%2BDaughter;labelBackgroundColor=none;rounded=0;" parent="1vJfrN8NMG1-H0iuWCPC-136" vertex="1">
          <mxGeometry x="36" width="94" height="22" as="geometry">
            <mxRectangle width="94" height="22" as="alternateBounds" />
          </mxGeometry>
        </mxCell>
        <mxCell id="1vJfrN8NMG1-H0iuWCPC-139" style="shape=tableRow;horizontal=0;startSize=0;swimlaneHead=0;swimlaneBody=0;fillColor=none;collapsible=0;dropTarget=0;points=[[0,0.5],[1,0.5]];portConstraint=eastwest;top=0;left=0;right=0;bottom=0;hachureGap=4;fontFamily=Architects Daughter;fontSource=https%3A%2F%2Ffonts.googleapis.com%2Fcss%3Ffamily%3DArchitects%2BDaughter;labelBackgroundColor=none;rounded=0;" parent="1vJfrN8NMG1-H0iuWCPC-135" vertex="1">
          <mxGeometry y="47" width="130" height="22" as="geometry" />
        </mxCell>
        <mxCell id="1vJfrN8NMG1-H0iuWCPC-140" value="int" style="shape=partialRectangle;connectable=0;fillColor=none;top=0;left=0;bottom=0;right=0;align=left;spacingLeft=2;overflow=hidden;fontSize=11;hachureGap=4;fontFamily=Architects Daughter;fontSource=https%3A%2F%2Ffonts.googleapis.com%2Fcss%3Ffamily%3DArchitects%2BDaughter;labelBackgroundColor=none;rounded=0;" parent="1vJfrN8NMG1-H0iuWCPC-139" vertex="1">
          <mxGeometry width="36" height="22" as="geometry">
            <mxRectangle width="36" height="22" as="alternateBounds" />
          </mxGeometry>
        </mxCell>
        <mxCell id="1vJfrN8NMG1-H0iuWCPC-141" value="Report_Type" style="shape=partialRectangle;connectable=0;fillColor=none;top=0;left=0;bottom=0;right=0;align=left;spacingLeft=2;overflow=hidden;fontSize=11;hachureGap=4;fontFamily=Architects Daughter;fontSource=https%3A%2F%2Ffonts.googleapis.com%2Fcss%3Ffamily%3DArchitects%2BDaughter;labelBackgroundColor=none;rounded=0;" parent="1vJfrN8NMG1-H0iuWCPC-139" vertex="1">
          <mxGeometry x="36" width="94" height="22" as="geometry">
            <mxRectangle width="94" height="22" as="alternateBounds" />
          </mxGeometry>
        </mxCell>
        <mxCell id="1vJfrN8NMG1-H0iuWCPC-142" style="shape=tableRow;horizontal=0;startSize=0;swimlaneHead=0;swimlaneBody=0;fillColor=none;collapsible=0;dropTarget=0;points=[[0,0.5],[1,0.5]];portConstraint=eastwest;top=0;left=0;right=0;bottom=0;hachureGap=4;fontFamily=Architects Daughter;fontSource=https%3A%2F%2Ffonts.googleapis.com%2Fcss%3Ffamily%3DArchitects%2BDaughter;labelBackgroundColor=none;rounded=0;" parent="1vJfrN8NMG1-H0iuWCPC-135" vertex="1">
          <mxGeometry y="69" width="130" height="22" as="geometry" />
        </mxCell>
        <mxCell id="1vJfrN8NMG1-H0iuWCPC-143" value="date" style="shape=partialRectangle;connectable=0;fillColor=none;top=0;left=0;bottom=0;right=0;align=left;spacingLeft=2;overflow=hidden;fontSize=11;hachureGap=4;fontFamily=Architects Daughter;fontSource=https%3A%2F%2Ffonts.googleapis.com%2Fcss%3Ffamily%3DArchitects%2BDaughter;labelBackgroundColor=none;rounded=0;" parent="1vJfrN8NMG1-H0iuWCPC-142" vertex="1">
          <mxGeometry width="36" height="22" as="geometry">
            <mxRectangle width="36" height="22" as="alternateBounds" />
          </mxGeometry>
        </mxCell>
        <mxCell id="1vJfrN8NMG1-H0iuWCPC-144" value="Report_Date" style="shape=partialRectangle;connectable=0;fillColor=none;top=0;left=0;bottom=0;right=0;align=left;spacingLeft=2;overflow=hidden;fontSize=11;hachureGap=4;fontFamily=Architects Daughter;fontSource=https%3A%2F%2Ffonts.googleapis.com%2Fcss%3Ffamily%3DArchitects%2BDaughter;labelBackgroundColor=none;rounded=0;" parent="1vJfrN8NMG1-H0iuWCPC-142" vertex="1">
          <mxGeometry x="36" width="94" height="22" as="geometry">
            <mxRectangle width="94" height="22" as="alternateBounds" />
          </mxGeometry>
        </mxCell>
        <mxCell id="1vJfrN8NMG1-H0iuWCPC-145" style="shape=tableRow;horizontal=0;startSize=0;swimlaneHead=0;swimlaneBody=0;fillColor=none;collapsible=0;dropTarget=0;points=[[0,0.5],[1,0.5]];portConstraint=eastwest;top=0;left=0;right=0;bottom=0;hachureGap=4;fontFamily=Architects Daughter;fontSource=https%3A%2F%2Ffonts.googleapis.com%2Fcss%3Ffamily%3DArchitects%2BDaughter;labelBackgroundColor=none;rounded=0;" parent="1vJfrN8NMG1-H0iuWCPC-135" vertex="1">
          <mxGeometry y="91" width="130" height="22" as="geometry" />
        </mxCell>
        <mxCell id="1vJfrN8NMG1-H0iuWCPC-146" value="string" style="shape=partialRectangle;connectable=0;fillColor=none;top=0;left=0;bottom=0;right=0;align=left;spacingLeft=2;overflow=hidden;fontSize=11;hachureGap=4;fontFamily=Architects Daughter;fontSource=https%3A%2F%2Ffonts.googleapis.com%2Fcss%3Ffamily%3DArchitects%2BDaughter;labelBackgroundColor=none;rounded=0;" parent="1vJfrN8NMG1-H0iuWCPC-145" vertex="1">
          <mxGeometry width="36" height="22" as="geometry">
            <mxRectangle width="36" height="22" as="alternateBounds" />
          </mxGeometry>
        </mxCell>
        <mxCell id="1vJfrN8NMG1-H0iuWCPC-147" value="Report_Data" style="shape=partialRectangle;connectable=0;fillColor=none;top=0;left=0;bottom=0;right=0;align=left;spacingLeft=2;overflow=hidden;fontSize=11;hachureGap=4;fontFamily=Architects Daughter;fontSource=https%3A%2F%2Ffonts.googleapis.com%2Fcss%3Ffamily%3DArchitects%2BDaughter;labelBackgroundColor=none;rounded=0;" parent="1vJfrN8NMG1-H0iuWCPC-145" vertex="1">
          <mxGeometry x="36" width="94" height="22" as="geometry">
            <mxRectangle width="94" height="22" as="alternateBounds" />
          </mxGeometry>
        </mxCell>
        <mxCell id="1vJfrN8NMG1-H0iuWCPC-155" value="Transactions" style="shape=table;startSize=25;container=1;collapsible=0;childLayout=tableLayout;fixedRows=1;rowLines=1;fontStyle=1;align=center;resizeLast=1;hachureGap=4;fontFamily=Architects Daughter;fontSource=https%3A%2F%2Ffonts.googleapis.com%2Fcss%3Ffamily%3DArchitects%2BDaughter;labelBackgroundColor=none;rounded=0;" parent="1" vertex="1">
          <mxGeometry x="1020" y="280" width="140" height="113" as="geometry" />
        </mxCell>
        <mxCell id="1vJfrN8NMG1-H0iuWCPC-156" style="shape=tableRow;horizontal=0;startSize=0;swimlaneHead=0;swimlaneBody=0;fillColor=none;collapsible=0;dropTarget=0;points=[[0,0.5],[1,0.5]];portConstraint=eastwest;top=0;left=0;right=0;bottom=0;hachureGap=4;fontFamily=Architects Daughter;fontSource=https%3A%2F%2Ffonts.googleapis.com%2Fcss%3Ffamily%3DArchitects%2BDaughter;labelBackgroundColor=none;rounded=0;" parent="1vJfrN8NMG1-H0iuWCPC-155" vertex="1">
          <mxGeometry y="25" width="140" height="22" as="geometry" />
        </mxCell>
        <mxCell id="1vJfrN8NMG1-H0iuWCPC-157" value="int" style="shape=partialRectangle;connectable=0;fillColor=none;top=0;left=0;bottom=0;right=0;align=left;spacingLeft=2;overflow=hidden;fontSize=11;hachureGap=4;fontFamily=Architects Daughter;fontSource=https%3A%2F%2Ffonts.googleapis.com%2Fcss%3Ffamily%3DArchitects%2BDaughter;labelBackgroundColor=none;rounded=0;" parent="1vJfrN8NMG1-H0iuWCPC-156" vertex="1">
          <mxGeometry width="36" height="22" as="geometry">
            <mxRectangle width="36" height="22" as="alternateBounds" />
          </mxGeometry>
        </mxCell>
        <mxCell id="1vJfrN8NMG1-H0iuWCPC-158" value="Transaction_ID" style="shape=partialRectangle;connectable=0;fillColor=none;top=0;left=0;bottom=0;right=0;align=left;spacingLeft=2;overflow=hidden;fontSize=11;hachureGap=4;fontFamily=Architects Daughter;fontSource=https%3A%2F%2Ffonts.googleapis.com%2Fcss%3Ffamily%3DArchitects%2BDaughter;labelBackgroundColor=none;rounded=0;" parent="1vJfrN8NMG1-H0iuWCPC-156" vertex="1">
          <mxGeometry x="36" width="104" height="22" as="geometry">
            <mxRectangle width="104" height="22" as="alternateBounds" />
          </mxGeometry>
        </mxCell>
        <mxCell id="1vJfrN8NMG1-H0iuWCPC-159" style="shape=tableRow;horizontal=0;startSize=0;swimlaneHead=0;swimlaneBody=0;fillColor=none;collapsible=0;dropTarget=0;points=[[0,0.5],[1,0.5]];portConstraint=eastwest;top=0;left=0;right=0;bottom=0;hachureGap=4;fontFamily=Architects Daughter;fontSource=https%3A%2F%2Ffonts.googleapis.com%2Fcss%3Ffamily%3DArchitects%2BDaughter;labelBackgroundColor=none;rounded=0;" parent="1vJfrN8NMG1-H0iuWCPC-155" vertex="1">
          <mxGeometry y="47" width="140" height="22" as="geometry" />
        </mxCell>
        <mxCell id="1vJfrN8NMG1-H0iuWCPC-160" value="int" style="shape=partialRectangle;connectable=0;fillColor=none;top=0;left=0;bottom=0;right=0;align=left;spacingLeft=2;overflow=hidden;fontSize=11;hachureGap=4;fontFamily=Architects Daughter;fontSource=https%3A%2F%2Ffonts.googleapis.com%2Fcss%3Ffamily%3DArchitects%2BDaughter;labelBackgroundColor=none;rounded=0;" parent="1vJfrN8NMG1-H0iuWCPC-159" vertex="1">
          <mxGeometry width="36" height="22" as="geometry">
            <mxRectangle width="36" height="22" as="alternateBounds" />
          </mxGeometry>
        </mxCell>
        <mxCell id="1vJfrN8NMG1-H0iuWCPC-161" value="Action_Type" style="shape=partialRectangle;connectable=0;fillColor=none;top=0;left=0;bottom=0;right=0;align=left;spacingLeft=2;overflow=hidden;fontSize=11;hachureGap=4;fontFamily=Architects Daughter;fontSource=https%3A%2F%2Ffonts.googleapis.com%2Fcss%3Ffamily%3DArchitects%2BDaughter;labelBackgroundColor=none;rounded=0;" parent="1vJfrN8NMG1-H0iuWCPC-159" vertex="1">
          <mxGeometry x="36" width="104" height="22" as="geometry">
            <mxRectangle width="104" height="22" as="alternateBounds" />
          </mxGeometry>
        </mxCell>
        <mxCell id="1vJfrN8NMG1-H0iuWCPC-162" style="shape=tableRow;horizontal=0;startSize=0;swimlaneHead=0;swimlaneBody=0;fillColor=none;collapsible=0;dropTarget=0;points=[[0,0.5],[1,0.5]];portConstraint=eastwest;top=0;left=0;right=0;bottom=0;hachureGap=4;fontFamily=Architects Daughter;fontSource=https%3A%2F%2Ffonts.googleapis.com%2Fcss%3Ffamily%3DArchitects%2BDaughter;labelBackgroundColor=none;rounded=0;" parent="1vJfrN8NMG1-H0iuWCPC-155" vertex="1">
          <mxGeometry y="69" width="140" height="22" as="geometry" />
        </mxCell>
        <mxCell id="1vJfrN8NMG1-H0iuWCPC-163" value="int" style="shape=partialRectangle;connectable=0;fillColor=none;top=0;left=0;bottom=0;right=0;align=left;spacingLeft=2;overflow=hidden;fontSize=11;hachureGap=4;fontFamily=Architects Daughter;fontSource=https%3A%2F%2Ffonts.googleapis.com%2Fcss%3Ffamily%3DArchitects%2BDaughter;labelBackgroundColor=none;rounded=0;" parent="1vJfrN8NMG1-H0iuWCPC-162" vertex="1">
          <mxGeometry width="36" height="22" as="geometry">
            <mxRectangle width="36" height="22" as="alternateBounds" />
          </mxGeometry>
        </mxCell>
        <mxCell id="1vJfrN8NMG1-H0iuWCPC-164" value="User" style="shape=partialRectangle;connectable=0;fillColor=none;top=0;left=0;bottom=0;right=0;align=left;spacingLeft=2;overflow=hidden;fontSize=11;hachureGap=4;fontFamily=Architects Daughter;fontSource=https%3A%2F%2Ffonts.googleapis.com%2Fcss%3Ffamily%3DArchitects%2BDaughter;labelBackgroundColor=none;rounded=0;" parent="1vJfrN8NMG1-H0iuWCPC-162" vertex="1">
          <mxGeometry x="36" width="104" height="22" as="geometry">
            <mxRectangle width="104" height="22" as="alternateBounds" />
          </mxGeometry>
        </mxCell>
        <mxCell id="1vJfrN8NMG1-H0iuWCPC-171" style="shape=tableRow;horizontal=0;startSize=0;swimlaneHead=0;swimlaneBody=0;fillColor=none;collapsible=0;dropTarget=0;points=[[0,0.5],[1,0.5]];portConstraint=eastwest;top=0;left=0;right=0;bottom=0;hachureGap=4;fontFamily=Architects Daughter;fontSource=https%3A%2F%2Ffonts.googleapis.com%2Fcss%3Ffamily%3DArchitects%2BDaughter;labelBackgroundColor=none;rounded=0;" parent="1vJfrN8NMG1-H0iuWCPC-155" vertex="1">
          <mxGeometry y="91" width="140" height="22" as="geometry" />
        </mxCell>
        <mxCell id="1vJfrN8NMG1-H0iuWCPC-172" value="date" style="shape=partialRectangle;connectable=0;fillColor=none;top=0;left=0;bottom=0;right=0;align=left;spacingLeft=2;overflow=hidden;fontSize=11;hachureGap=4;fontFamily=Architects Daughter;fontSource=https%3A%2F%2Ffonts.googleapis.com%2Fcss%3Ffamily%3DArchitects%2BDaughter;labelBackgroundColor=none;rounded=0;" parent="1vJfrN8NMG1-H0iuWCPC-171" vertex="1">
          <mxGeometry width="36" height="22" as="geometry">
            <mxRectangle width="36" height="22" as="alternateBounds" />
          </mxGeometry>
        </mxCell>
        <mxCell id="1vJfrN8NMG1-H0iuWCPC-173" value="Timestamp" style="shape=partialRectangle;connectable=0;fillColor=none;top=0;left=0;bottom=0;right=0;align=left;spacingLeft=2;overflow=hidden;fontSize=11;hachureGap=4;fontFamily=Architects Daughter;fontSource=https%3A%2F%2Ffonts.googleapis.com%2Fcss%3Ffamily%3DArchitects%2BDaughter;labelBackgroundColor=none;rounded=0;" parent="1vJfrN8NMG1-H0iuWCPC-171" vertex="1">
          <mxGeometry x="36" width="104" height="22" as="geometry">
            <mxRectangle width="104" height="22" as="alternateBounds" />
          </mxGeometry>
        </mxCell>
        <mxCell id="1vJfrN8NMG1-H0iuWCPC-182" value="has" style="startArrow=ERmandOne;startSize=10;;endArrow=ERmany;endSize=10;;entryX=0.515;entryY=0.031;rounded=0;hachureGap=4;fontFamily=Architects Daughter;fontSource=https%3A%2F%2Ffonts.googleapis.com%2Fcss%3Ffamily%3DArchitects%2BDaughter;exitX=0.631;exitY=0.979;exitDx=0;exitDy=0;exitPerimeter=0;labelBackgroundColor=none;fontColor=default;entryDx=0;entryDy=0;entryPerimeter=0;" parent="1" source="1vJfrN8NMG1-H0iuWCPC-32" target="9b2ZEqx7m3cvuWr-d3pR-1" edge="1">
          <mxGeometry x="0.0002" y="1" relative="1" as="geometry">
            <mxPoint x="860" y="545" as="sourcePoint" />
            <mxPoint as="offset" />
            <mxPoint x="859.9999999999998" y="670" as="targetPoint" />
          </mxGeometry>
        </mxCell>
        <mxCell id="1vJfrN8NMG1-H0iuWCPC-183" value="belongs to" style="startArrow=ERmandOne;startSize=10;;endArrow=ERmany;endSize=10;;exitX=0.98;exitY=0.824;entryX=0.5;entryY=0;rounded=0;hachureGap=4;fontFamily=Architects Daughter;fontSource=https%3A%2F%2Ffonts.googleapis.com%2Fcss%3Ffamily%3DArchitects%2BDaughter;exitDx=0;exitDy=0;exitPerimeter=0;labelBackgroundColor=none;fontColor=default;" parent="1" source="1vJfrN8NMG1-H0iuWCPC-32" target="1vJfrN8NMG1-H0iuWCPC-49" edge="1">
          <mxGeometry x="0.0441" y="3" relative="1" as="geometry">
            <mxPoint as="offset" />
          </mxGeometry>
        </mxCell>
        <mxCell id="1vJfrN8NMG1-H0iuWCPC-184" value="has" style="curved=1;startArrow=ERmandOne;startSize=10;;endArrow=ERmany;endSize=10;;entryX=1.004;entryY=0.071;rounded=0;hachureGap=4;fontFamily=Architects Daughter;fontSource=https%3A%2F%2Ffonts.googleapis.com%2Fcss%3Ffamily%3DArchitects%2BDaughter;entryDx=0;entryDy=0;entryPerimeter=0;exitX=0;exitY=0.5;exitDx=0;exitDy=0;labelBackgroundColor=none;fontColor=default;" parent="1" source="1vJfrN8NMG1-H0iuWCPC-20" target="1vJfrN8NMG1-H0iuWCPC-97" edge="1">
          <mxGeometry x="-0.0182" y="1" relative="1" as="geometry">
            <Array as="points" />
            <mxPoint x="800" y="490" as="sourcePoint" />
            <mxPoint as="offset" />
          </mxGeometry>
        </mxCell>
        <mxCell id="1vJfrN8NMG1-H0iuWCPC-186" value="has" style="curved=1;startArrow=ERmandOne;startSize=10;;endArrow=ERmany;endSize=10;;rounded=0;hachureGap=4;fontFamily=Architects Daughter;fontSource=https%3A%2F%2Ffonts.googleapis.com%2Fcss%3Ffamily%3DArchitects%2BDaughter;entryX=0.496;entryY=1.045;entryDx=0;entryDy=0;entryPerimeter=0;exitX=0.5;exitY=0;exitDx=0;exitDy=0;labelBackgroundColor=none;fontColor=default;endFill=0;startFill=0;" parent="1" source="1vJfrN8NMG1-H0iuWCPC-59" target="1vJfrN8NMG1-H0iuWCPC-94" edge="1">
          <mxGeometry x="-0.0233" relative="1" as="geometry">
            <Array as="points" />
            <mxPoint x="399" y="818" as="sourcePoint" />
            <mxPoint x="400" y="708" as="targetPoint" />
            <mxPoint as="offset" />
          </mxGeometry>
        </mxCell>
        <mxCell id="1vJfrN8NMG1-H0iuWCPC-188" value="has" style="curved=1;startArrow=ERmandOne;startSize=10;;endArrow=ERmany;endSize=10;;exitX=1.008;exitY=0.05;entryX=-0.008;entryY=0.073;rounded=0;hachureGap=4;fontFamily=Architects Daughter;fontSource=https%3A%2F%2Ffonts.googleapis.com%2Fcss%3Ffamily%3DArchitects%2BDaughter;entryDx=0;entryDy=0;exitDx=0;exitDy=0;exitPerimeter=0;labelBackgroundColor=none;fontColor=default;entryPerimeter=0;endFill=0;startFill=0;" parent="1" source="1vJfrN8NMG1-H0iuWCPC-69" target="1vJfrN8NMG1-H0iuWCPC-97" edge="1">
          <mxGeometry relative="1" as="geometry">
            <Array as="points" />
          </mxGeometry>
        </mxCell>
        <mxCell id="1vJfrN8NMG1-H0iuWCPC-189" value="is a" style="curved=1;startArrow=ERmany;startSize=10;;endArrow=ERmandOne;endSize=10;;exitX=0.5;exitY=1;entryX=0.5;entryY=0;rounded=0;hachureGap=4;fontFamily=Architects Daughter;fontSource=https%3A%2F%2Ffonts.googleapis.com%2Fcss%3Ffamily%3DArchitects%2BDaughter;labelBackgroundColor=none;fontColor=default;entryDx=0;entryDy=0;startFill=0;endFill=0;" parent="1" source="1vJfrN8NMG1-H0iuWCPC-135" target="9b2ZEqx7m3cvuWr-d3pR-45" edge="1">
          <mxGeometry relative="1" as="geometry">
            <Array as="points" />
            <mxPoint x="1320" y="470" as="targetPoint" />
          </mxGeometry>
        </mxCell>
        <mxCell id="1vJfrN8NMG1-H0iuWCPC-190" value="belongs to" style="startArrow=ERmany;startSize=10;;endArrow=ERmandOne;endSize=10;;exitX=0.016;exitY=0.088;entryX=1.014;entryY=0.05;rounded=0;hachureGap=4;fontFamily=Architects Daughter;fontSource=https%3A%2F%2Ffonts.googleapis.com%2Fcss%3Ffamily%3DArchitects%2BDaughter;exitDx=0;exitDy=0;exitPerimeter=0;entryDx=0;entryDy=0;entryPerimeter=0;labelBackgroundColor=none;fontColor=default;endFill=0;startFill=0;" parent="1" source="1vJfrN8NMG1-H0iuWCPC-155" target="1vJfrN8NMG1-H0iuWCPC-1" edge="1">
          <mxGeometry x="0.0153" relative="1" as="geometry">
            <mxPoint as="offset" />
          </mxGeometry>
        </mxCell>
        <mxCell id="1vJfrN8NMG1-H0iuWCPC-191" value="is a" style="curved=1;startArrow=ERmany;startSize=10;;endArrow=ERmandOne;endSize=10;;exitX=0.508;exitY=0.972;rounded=0;hachureGap=4;fontFamily=Architects Daughter;fontSource=https%3A%2F%2Ffonts.googleapis.com%2Fcss%3Ffamily%3DArchitects%2BDaughter;exitDx=0;exitDy=0;exitPerimeter=0;entryX=0.516;entryY=0.044;entryDx=0;entryDy=0;entryPerimeter=0;labelBackgroundColor=none;fontColor=default;endFill=0;startFill=0;" parent="1" source="1vJfrN8NMG1-H0iuWCPC-171" target="9b2ZEqx7m3cvuWr-d3pR-55" edge="1">
          <mxGeometry relative="1" as="geometry">
            <Array as="points" />
            <mxPoint x="1077.0800000000002" y="466.408" as="targetPoint" />
          </mxGeometry>
        </mxCell>
        <mxCell id="APg_lNl1Cmf6mj4xYtwT-23" value="has" style="startArrow=ERmandOne;startSize=10;;endArrow=ERmany;endSize=10;;exitX=0.287;exitY=0.979;rounded=0;hachureGap=4;fontFamily=Architects Daughter;fontSource=https%3A%2F%2Ffonts.googleapis.com%2Fcss%3Ffamily%3DArchitects%2BDaughter;exitDx=0;exitDy=0;exitPerimeter=0;entryX=0.537;entryY=-0.004;entryDx=0;entryDy=0;labelBackgroundColor=none;fontColor=default;entryPerimeter=0;" parent="1" source="1vJfrN8NMG1-H0iuWCPC-32" target="9b2ZEqx7m3cvuWr-d3pR-21" edge="1">
          <mxGeometry x="-0.0052" y="3" relative="1" as="geometry">
            <mxPoint x="680.432" y="671.9110000000001" as="targetPoint" />
            <mxPoint as="offset" />
            <mxPoint x="816" y="568" as="sourcePoint" />
          </mxGeometry>
        </mxCell>
        <mxCell id="APg_lNl1Cmf6mj4xYtwT-24" value="Achievements" style="shape=table;startSize=25;container=1;collapsible=0;childLayout=tableLayout;fixedRows=1;rowLines=1;fontStyle=1;align=center;resizeLast=1;hachureGap=4;fontFamily=Architects Daughter;fontSource=https%3A%2F%2Ffonts.googleapis.com%2Fcss%3Ffamily%3DArchitects%2BDaughter;labelBackgroundColor=none;rounded=0;" parent="1" vertex="1">
          <mxGeometry x="320" y="280" width="160" height="91" as="geometry" />
        </mxCell>
        <mxCell id="APg_lNl1Cmf6mj4xYtwT-25" style="shape=tableRow;horizontal=0;startSize=0;swimlaneHead=0;swimlaneBody=0;fillColor=none;collapsible=0;dropTarget=0;points=[[0,0.5],[1,0.5]];portConstraint=eastwest;top=0;left=0;right=0;bottom=0;hachureGap=4;fontFamily=Architects Daughter;fontSource=https%3A%2F%2Ffonts.googleapis.com%2Fcss%3Ffamily%3DArchitects%2BDaughter;labelBackgroundColor=none;rounded=0;" parent="APg_lNl1Cmf6mj4xYtwT-24" vertex="1">
          <mxGeometry y="25" width="160" height="22" as="geometry" />
        </mxCell>
        <mxCell id="APg_lNl1Cmf6mj4xYtwT-26" value="int" style="shape=partialRectangle;connectable=0;fillColor=none;top=0;left=0;bottom=0;right=0;align=left;spacingLeft=2;overflow=hidden;fontSize=11;hachureGap=4;fontFamily=Architects Daughter;fontSource=https%3A%2F%2Ffonts.googleapis.com%2Fcss%3Ffamily%3DArchitects%2BDaughter;labelBackgroundColor=none;rounded=0;" parent="APg_lNl1Cmf6mj4xYtwT-25" vertex="1">
          <mxGeometry width="36" height="22" as="geometry">
            <mxRectangle width="36" height="22" as="alternateBounds" />
          </mxGeometry>
        </mxCell>
        <mxCell id="APg_lNl1Cmf6mj4xYtwT-27" value="Achievements_ID" style="shape=partialRectangle;connectable=0;fillColor=none;top=0;left=0;bottom=0;right=0;align=left;spacingLeft=2;overflow=hidden;fontSize=11;hachureGap=4;fontFamily=Architects Daughter;fontSource=https%3A%2F%2Ffonts.googleapis.com%2Fcss%3Ffamily%3DArchitects%2BDaughter;labelBackgroundColor=none;rounded=0;" parent="APg_lNl1Cmf6mj4xYtwT-25" vertex="1">
          <mxGeometry x="36" width="124" height="22" as="geometry">
            <mxRectangle width="124" height="22" as="alternateBounds" />
          </mxGeometry>
        </mxCell>
        <mxCell id="APg_lNl1Cmf6mj4xYtwT-28" style="shape=tableRow;horizontal=0;startSize=0;swimlaneHead=0;swimlaneBody=0;fillColor=none;collapsible=0;dropTarget=0;points=[[0,0.5],[1,0.5]];portConstraint=eastwest;top=0;left=0;right=0;bottom=0;hachureGap=4;fontFamily=Architects Daughter;fontSource=https%3A%2F%2Ffonts.googleapis.com%2Fcss%3Ffamily%3DArchitects%2BDaughter;labelBackgroundColor=none;rounded=0;" parent="APg_lNl1Cmf6mj4xYtwT-24" vertex="1">
          <mxGeometry y="47" width="160" height="22" as="geometry" />
        </mxCell>
        <mxCell id="APg_lNl1Cmf6mj4xYtwT-29" value="string" style="shape=partialRectangle;connectable=0;fillColor=none;top=0;left=0;bottom=0;right=0;align=left;spacingLeft=2;overflow=hidden;fontSize=11;hachureGap=4;fontFamily=Architects Daughter;fontSource=https%3A%2F%2Ffonts.googleapis.com%2Fcss%3Ffamily%3DArchitects%2BDaughter;labelBackgroundColor=none;rounded=0;" parent="APg_lNl1Cmf6mj4xYtwT-28" vertex="1">
          <mxGeometry width="36" height="22" as="geometry">
            <mxRectangle width="36" height="22" as="alternateBounds" />
          </mxGeometry>
        </mxCell>
        <mxCell id="APg_lNl1Cmf6mj4xYtwT-30" value="Name" style="shape=partialRectangle;connectable=0;fillColor=none;top=0;left=0;bottom=0;right=0;align=left;spacingLeft=2;overflow=hidden;fontSize=11;hachureGap=4;fontFamily=Architects Daughter;fontSource=https%3A%2F%2Ffonts.googleapis.com%2Fcss%3Ffamily%3DArchitects%2BDaughter;labelBackgroundColor=none;rounded=0;" parent="APg_lNl1Cmf6mj4xYtwT-28" vertex="1">
          <mxGeometry x="36" width="124" height="22" as="geometry">
            <mxRectangle width="124" height="22" as="alternateBounds" />
          </mxGeometry>
        </mxCell>
        <mxCell id="APg_lNl1Cmf6mj4xYtwT-31" style="shape=tableRow;horizontal=0;startSize=0;swimlaneHead=0;swimlaneBody=0;fillColor=none;collapsible=0;dropTarget=0;points=[[0,0.5],[1,0.5]];portConstraint=eastwest;top=0;left=0;right=0;bottom=0;hachureGap=4;fontFamily=Architects Daughter;fontSource=https%3A%2F%2Ffonts.googleapis.com%2Fcss%3Ffamily%3DArchitects%2BDaughter;labelBackgroundColor=none;rounded=0;" parent="APg_lNl1Cmf6mj4xYtwT-24" vertex="1">
          <mxGeometry y="69" width="160" height="22" as="geometry" />
        </mxCell>
        <mxCell id="APg_lNl1Cmf6mj4xYtwT-32" value="string" style="shape=partialRectangle;connectable=0;fillColor=none;top=0;left=0;bottom=0;right=0;align=left;spacingLeft=2;overflow=hidden;fontSize=11;hachureGap=4;fontFamily=Architects Daughter;fontSource=https%3A%2F%2Ffonts.googleapis.com%2Fcss%3Ffamily%3DArchitects%2BDaughter;labelBackgroundColor=none;rounded=0;" parent="APg_lNl1Cmf6mj4xYtwT-31" vertex="1">
          <mxGeometry width="36" height="22" as="geometry">
            <mxRectangle width="36" height="22" as="alternateBounds" />
          </mxGeometry>
        </mxCell>
        <mxCell id="APg_lNl1Cmf6mj4xYtwT-33" value="Description" style="shape=partialRectangle;connectable=0;fillColor=none;top=0;left=0;bottom=0;right=0;align=left;spacingLeft=2;overflow=hidden;fontSize=11;hachureGap=4;fontFamily=Architects Daughter;fontSource=https%3A%2F%2Ffonts.googleapis.com%2Fcss%3Ffamily%3DArchitects%2BDaughter;labelBackgroundColor=none;rounded=0;" parent="APg_lNl1Cmf6mj4xYtwT-31" vertex="1">
          <mxGeometry x="36" width="124" height="22" as="geometry">
            <mxRectangle width="124" height="22" as="alternateBounds" />
          </mxGeometry>
        </mxCell>
        <mxCell id="APg_lNl1Cmf6mj4xYtwT-34" value="Hall of Fame" style="shape=table;startSize=25;container=1;collapsible=0;childLayout=tableLayout;fixedRows=1;rowLines=1;fontStyle=1;align=center;resizeLast=1;hachureGap=4;fontFamily=Architects Daughter;fontSource=https%3A%2F%2Ffonts.googleapis.com%2Fcss%3Ffamily%3DArchitects%2BDaughter;labelBackgroundColor=none;rounded=0;" parent="1" vertex="1">
          <mxGeometry x="560" y="280" width="140" height="68" as="geometry" />
        </mxCell>
        <mxCell id="APg_lNl1Cmf6mj4xYtwT-35" style="shape=tableRow;horizontal=0;startSize=0;swimlaneHead=0;swimlaneBody=0;fillColor=none;collapsible=0;dropTarget=0;points=[[0,0.5],[1,0.5]];portConstraint=eastwest;top=0;left=0;right=0;bottom=0;hachureGap=4;fontFamily=Architects Daughter;fontSource=https%3A%2F%2Ffonts.googleapis.com%2Fcss%3Ffamily%3DArchitects%2BDaughter;labelBackgroundColor=none;rounded=0;" parent="APg_lNl1Cmf6mj4xYtwT-34" vertex="1">
          <mxGeometry y="25" width="140" height="21" as="geometry" />
        </mxCell>
        <mxCell id="APg_lNl1Cmf6mj4xYtwT-36" value="int" style="shape=partialRectangle;connectable=0;fillColor=none;top=0;left=0;bottom=0;right=0;align=left;spacingLeft=2;overflow=hidden;fontSize=11;hachureGap=4;fontFamily=Architects Daughter;fontSource=https%3A%2F%2Ffonts.googleapis.com%2Fcss%3Ffamily%3DArchitects%2BDaughter;labelBackgroundColor=none;rounded=0;" parent="APg_lNl1Cmf6mj4xYtwT-35" vertex="1">
          <mxGeometry width="36" height="21" as="geometry">
            <mxRectangle width="36" height="21" as="alternateBounds" />
          </mxGeometry>
        </mxCell>
        <mxCell id="APg_lNl1Cmf6mj4xYtwT-37" value="Employee_ID" style="shape=partialRectangle;connectable=0;fillColor=none;top=0;left=0;bottom=0;right=0;align=left;spacingLeft=2;overflow=hidden;fontSize=11;hachureGap=4;fontFamily=Architects Daughter;fontSource=https%3A%2F%2Ffonts.googleapis.com%2Fcss%3Ffamily%3DArchitects%2BDaughter;labelBackgroundColor=none;rounded=0;" parent="APg_lNl1Cmf6mj4xYtwT-35" vertex="1">
          <mxGeometry x="36" width="104" height="21" as="geometry">
            <mxRectangle width="104" height="21" as="alternateBounds" />
          </mxGeometry>
        </mxCell>
        <mxCell id="APg_lNl1Cmf6mj4xYtwT-38" style="shape=tableRow;horizontal=0;startSize=0;swimlaneHead=0;swimlaneBody=0;fillColor=none;collapsible=0;dropTarget=0;points=[[0,0.5],[1,0.5]];portConstraint=eastwest;top=0;left=0;right=0;bottom=0;hachureGap=4;fontFamily=Architects Daughter;fontSource=https%3A%2F%2Ffonts.googleapis.com%2Fcss%3Ffamily%3DArchitects%2BDaughter;labelBackgroundColor=none;rounded=0;" parent="APg_lNl1Cmf6mj4xYtwT-34" vertex="1">
          <mxGeometry y="46" width="140" height="21" as="geometry" />
        </mxCell>
        <mxCell id="APg_lNl1Cmf6mj4xYtwT-39" value="int" style="shape=partialRectangle;connectable=0;fillColor=none;top=0;left=0;bottom=0;right=0;align=left;spacingLeft=2;overflow=hidden;fontSize=11;hachureGap=4;fontFamily=Architects Daughter;fontSource=https%3A%2F%2Ffonts.googleapis.com%2Fcss%3Ffamily%3DArchitects%2BDaughter;labelBackgroundColor=none;rounded=0;" parent="APg_lNl1Cmf6mj4xYtwT-38" vertex="1">
          <mxGeometry width="36" height="21" as="geometry">
            <mxRectangle width="36" height="21" as="alternateBounds" />
          </mxGeometry>
        </mxCell>
        <mxCell id="APg_lNl1Cmf6mj4xYtwT-40" value="Achievements" style="shape=partialRectangle;connectable=0;fillColor=none;top=0;left=0;bottom=0;right=0;align=left;spacingLeft=2;overflow=hidden;fontSize=11;hachureGap=4;fontFamily=Architects Daughter;fontSource=https%3A%2F%2Ffonts.googleapis.com%2Fcss%3Ffamily%3DArchitects%2BDaughter;labelBackgroundColor=none;rounded=0;" parent="APg_lNl1Cmf6mj4xYtwT-38" vertex="1">
          <mxGeometry x="36" width="104" height="21" as="geometry">
            <mxRectangle width="104" height="21" as="alternateBounds" />
          </mxGeometry>
        </mxCell>
        <mxCell id="APg_lNl1Cmf6mj4xYtwT-41" value="has" style="curved=1;startArrow=ERmandOne;startSize=10;;endArrow=ERmany;endSize=10;;rounded=0;hachureGap=4;fontFamily=Architects Daughter;fontSource=https%3A%2F%2Ffonts.googleapis.com%2Fcss%3Ffamily%3DArchitects%2BDaughter;labelBackgroundColor=none;fontColor=default;exitX=1.001;exitY=0.085;exitDx=0;exitDy=0;startFill=0;endFill=0;exitPerimeter=0;entryX=0.007;entryY=0.13;entryDx=0;entryDy=0;entryPerimeter=0;" parent="1" source="APg_lNl1Cmf6mj4xYtwT-24" target="APg_lNl1Cmf6mj4xYtwT-34" edge="1">
          <mxGeometry x="-0.0233" relative="1" as="geometry">
            <Array as="points" />
            <mxPoint x="510" y="1030" as="sourcePoint" />
            <mxPoint x="510" y="913" as="targetPoint" />
            <mxPoint as="offset" />
          </mxGeometry>
        </mxCell>
        <mxCell id="APg_lNl1Cmf6mj4xYtwT-54" value="belongs to" style="curved=1;startArrow=ERmandOne;startSize=10;;endArrow=ERmandOne;endSize=10;;exitX=0.997;exitY=0.183;rounded=0;hachureGap=4;fontFamily=Architects Daughter;fontSource=https%3A%2F%2Ffonts.googleapis.com%2Fcss%3Ffamily%3DArchitects%2BDaughter;exitDx=0;exitDy=0;labelBackgroundColor=none;fontColor=default;endFill=0;exitPerimeter=0;entryX=0.001;entryY=0.045;entryDx=0;entryDy=0;entryPerimeter=0;" parent="1" source="APg_lNl1Cmf6mj4xYtwT-34" target="1vJfrN8NMG1-H0iuWCPC-1" edge="1">
          <mxGeometry x="0.0207" y="2" relative="1" as="geometry">
            <Array as="points" />
            <mxPoint x="600" y="511" as="sourcePoint" />
            <mxPoint x="722" y="510" as="targetPoint" />
            <mxPoint as="offset" />
          </mxGeometry>
        </mxCell>
        <mxCell id="9b2ZEqx7m3cvuWr-d3pR-1" value="Positions" style="shape=table;startSize=25;container=1;collapsible=0;childLayout=tableLayout;fixedRows=1;rowLines=1;fontStyle=1;align=center;resizeLast=1;hachureGap=4;fontFamily=Architects Daughter;fontSource=https%3A%2F%2Ffonts.googleapis.com%2Fcss%3Ffamily%3DArchitects%2BDaughter;labelBackgroundColor=none;rounded=0;" parent="1" vertex="1">
          <mxGeometry x="870" y="639" width="124" height="91" as="geometry" />
        </mxCell>
        <mxCell id="9b2ZEqx7m3cvuWr-d3pR-2" style="shape=tableRow;horizontal=0;startSize=0;swimlaneHead=0;swimlaneBody=0;fillColor=none;collapsible=0;dropTarget=0;points=[[0,0.5],[1,0.5]];portConstraint=eastwest;top=0;left=0;right=0;bottom=0;hachureGap=4;fontFamily=Architects Daughter;fontSource=https%3A%2F%2Ffonts.googleapis.com%2Fcss%3Ffamily%3DArchitects%2BDaughter;labelBackgroundColor=none;rounded=0;" parent="9b2ZEqx7m3cvuWr-d3pR-1" vertex="1">
          <mxGeometry y="25" width="124" height="22" as="geometry" />
        </mxCell>
        <mxCell id="9b2ZEqx7m3cvuWr-d3pR-3" value="int" style="shape=partialRectangle;connectable=0;fillColor=none;top=0;left=0;bottom=0;right=0;align=left;spacingLeft=2;overflow=hidden;fontSize=11;hachureGap=4;fontFamily=Architects Daughter;fontSource=https%3A%2F%2Ffonts.googleapis.com%2Fcss%3Ffamily%3DArchitects%2BDaughter;labelBackgroundColor=none;rounded=0;" parent="9b2ZEqx7m3cvuWr-d3pR-2" vertex="1">
          <mxGeometry width="36" height="22" as="geometry">
            <mxRectangle width="36" height="22" as="alternateBounds" />
          </mxGeometry>
        </mxCell>
        <mxCell id="9b2ZEqx7m3cvuWr-d3pR-4" value="Position_ID" style="shape=partialRectangle;connectable=0;fillColor=none;top=0;left=0;bottom=0;right=0;align=left;spacingLeft=2;overflow=hidden;fontSize=11;hachureGap=4;fontFamily=Architects Daughter;fontSource=https%3A%2F%2Ffonts.googleapis.com%2Fcss%3Ffamily%3DArchitects%2BDaughter;labelBackgroundColor=none;rounded=0;" parent="9b2ZEqx7m3cvuWr-d3pR-2" vertex="1">
          <mxGeometry x="36" width="88" height="22" as="geometry">
            <mxRectangle width="88" height="22" as="alternateBounds" />
          </mxGeometry>
        </mxCell>
        <mxCell id="9b2ZEqx7m3cvuWr-d3pR-5" style="shape=tableRow;horizontal=0;startSize=0;swimlaneHead=0;swimlaneBody=0;fillColor=none;collapsible=0;dropTarget=0;points=[[0,0.5],[1,0.5]];portConstraint=eastwest;top=0;left=0;right=0;bottom=0;hachureGap=4;fontFamily=Architects Daughter;fontSource=https%3A%2F%2Ffonts.googleapis.com%2Fcss%3Ffamily%3DArchitects%2BDaughter;labelBackgroundColor=none;rounded=0;" parent="9b2ZEqx7m3cvuWr-d3pR-1" vertex="1">
          <mxGeometry y="47" width="124" height="22" as="geometry" />
        </mxCell>
        <mxCell id="9b2ZEqx7m3cvuWr-d3pR-6" value="string" style="shape=partialRectangle;connectable=0;fillColor=none;top=0;left=0;bottom=0;right=0;align=left;spacingLeft=2;overflow=hidden;fontSize=11;hachureGap=4;fontFamily=Architects Daughter;fontSource=https%3A%2F%2Ffonts.googleapis.com%2Fcss%3Ffamily%3DArchitects%2BDaughter;labelBackgroundColor=none;rounded=0;" parent="9b2ZEqx7m3cvuWr-d3pR-5" vertex="1">
          <mxGeometry width="36" height="22" as="geometry">
            <mxRectangle width="36" height="22" as="alternateBounds" />
          </mxGeometry>
        </mxCell>
        <mxCell id="9b2ZEqx7m3cvuWr-d3pR-7" value="Name" style="shape=partialRectangle;connectable=0;fillColor=none;top=0;left=0;bottom=0;right=0;align=left;spacingLeft=2;overflow=hidden;fontSize=11;hachureGap=4;fontFamily=Architects Daughter;fontSource=https%3A%2F%2Ffonts.googleapis.com%2Fcss%3Ffamily%3DArchitects%2BDaughter;labelBackgroundColor=none;rounded=0;" parent="9b2ZEqx7m3cvuWr-d3pR-5" vertex="1">
          <mxGeometry x="36" width="88" height="22" as="geometry">
            <mxRectangle width="88" height="22" as="alternateBounds" />
          </mxGeometry>
        </mxCell>
        <mxCell id="9b2ZEqx7m3cvuWr-d3pR-8" style="shape=tableRow;horizontal=0;startSize=0;swimlaneHead=0;swimlaneBody=0;fillColor=none;collapsible=0;dropTarget=0;points=[[0,0.5],[1,0.5]];portConstraint=eastwest;top=0;left=0;right=0;bottom=0;hachureGap=4;fontFamily=Architects Daughter;fontSource=https%3A%2F%2Ffonts.googleapis.com%2Fcss%3Ffamily%3DArchitects%2BDaughter;labelBackgroundColor=none;rounded=0;" parent="9b2ZEqx7m3cvuWr-d3pR-1" vertex="1">
          <mxGeometry y="69" width="124" height="22" as="geometry" />
        </mxCell>
        <mxCell id="9b2ZEqx7m3cvuWr-d3pR-9" value="string" style="shape=partialRectangle;connectable=0;fillColor=none;top=0;left=0;bottom=0;right=0;align=left;spacingLeft=2;overflow=hidden;fontSize=11;hachureGap=4;fontFamily=Architects Daughter;fontSource=https%3A%2F%2Ffonts.googleapis.com%2Fcss%3Ffamily%3DArchitects%2BDaughter;labelBackgroundColor=none;rounded=0;" parent="9b2ZEqx7m3cvuWr-d3pR-8" vertex="1">
          <mxGeometry width="36" height="22" as="geometry">
            <mxRectangle width="36" height="22" as="alternateBounds" />
          </mxGeometry>
        </mxCell>
        <mxCell id="9b2ZEqx7m3cvuWr-d3pR-10" value="Description" style="shape=partialRectangle;connectable=0;fillColor=none;top=0;left=0;bottom=0;right=0;align=left;spacingLeft=2;overflow=hidden;fontSize=11;hachureGap=4;fontFamily=Architects Daughter;fontSource=https%3A%2F%2Ffonts.googleapis.com%2Fcss%3Ffamily%3DArchitects%2BDaughter;labelBackgroundColor=none;rounded=0;" parent="9b2ZEqx7m3cvuWr-d3pR-8" vertex="1">
          <mxGeometry x="36" width="88" height="22" as="geometry">
            <mxRectangle width="88" height="22" as="alternateBounds" />
          </mxGeometry>
        </mxCell>
        <mxCell id="9b2ZEqx7m3cvuWr-d3pR-21" value="Roles" style="shape=table;startSize=25;container=1;collapsible=0;childLayout=tableLayout;fixedRows=1;rowLines=1;fontStyle=1;align=center;resizeLast=1;hachureGap=4;fontFamily=Architects Daughter;fontSource=https%3A%2F%2Ffonts.googleapis.com%2Fcss%3Ffamily%3DArchitects%2BDaughter;labelBackgroundColor=none;rounded=0;" parent="1" vertex="1">
          <mxGeometry x="720" y="639" width="130" height="113" as="geometry" />
        </mxCell>
        <mxCell id="9b2ZEqx7m3cvuWr-d3pR-22" style="shape=tableRow;horizontal=0;startSize=0;swimlaneHead=0;swimlaneBody=0;fillColor=none;collapsible=0;dropTarget=0;points=[[0,0.5],[1,0.5]];portConstraint=eastwest;top=0;left=0;right=0;bottom=0;hachureGap=4;fontFamily=Architects Daughter;fontSource=https%3A%2F%2Ffonts.googleapis.com%2Fcss%3Ffamily%3DArchitects%2BDaughter;labelBackgroundColor=none;rounded=0;" parent="9b2ZEqx7m3cvuWr-d3pR-21" vertex="1">
          <mxGeometry y="25" width="130" height="22" as="geometry" />
        </mxCell>
        <mxCell id="9b2ZEqx7m3cvuWr-d3pR-23" value="int" style="shape=partialRectangle;connectable=0;fillColor=none;top=0;left=0;bottom=0;right=0;align=left;spacingLeft=2;overflow=hidden;fontSize=11;hachureGap=4;fontFamily=Architects Daughter;fontSource=https%3A%2F%2Ffonts.googleapis.com%2Fcss%3Ffamily%3DArchitects%2BDaughter;labelBackgroundColor=none;rounded=0;" parent="9b2ZEqx7m3cvuWr-d3pR-22" vertex="1">
          <mxGeometry width="36" height="22" as="geometry">
            <mxRectangle width="36" height="22" as="alternateBounds" />
          </mxGeometry>
        </mxCell>
        <mxCell id="9b2ZEqx7m3cvuWr-d3pR-24" value="Role_ID" style="shape=partialRectangle;connectable=0;fillColor=none;top=0;left=0;bottom=0;right=0;align=left;spacingLeft=2;overflow=hidden;fontSize=11;hachureGap=4;fontFamily=Architects Daughter;fontSource=https%3A%2F%2Ffonts.googleapis.com%2Fcss%3Ffamily%3DArchitects%2BDaughter;labelBackgroundColor=none;rounded=0;" parent="9b2ZEqx7m3cvuWr-d3pR-22" vertex="1">
          <mxGeometry x="36" width="94" height="22" as="geometry">
            <mxRectangle width="94" height="22" as="alternateBounds" />
          </mxGeometry>
        </mxCell>
        <mxCell id="9b2ZEqx7m3cvuWr-d3pR-25" style="shape=tableRow;horizontal=0;startSize=0;swimlaneHead=0;swimlaneBody=0;fillColor=none;collapsible=0;dropTarget=0;points=[[0,0.5],[1,0.5]];portConstraint=eastwest;top=0;left=0;right=0;bottom=0;hachureGap=4;fontFamily=Architects Daughter;fontSource=https%3A%2F%2Ffonts.googleapis.com%2Fcss%3Ffamily%3DArchitects%2BDaughter;labelBackgroundColor=none;rounded=0;" parent="9b2ZEqx7m3cvuWr-d3pR-21" vertex="1">
          <mxGeometry y="47" width="130" height="22" as="geometry" />
        </mxCell>
        <mxCell id="9b2ZEqx7m3cvuWr-d3pR-26" value="string" style="shape=partialRectangle;connectable=0;fillColor=none;top=0;left=0;bottom=0;right=0;align=left;spacingLeft=2;overflow=hidden;fontSize=11;hachureGap=4;fontFamily=Architects Daughter;fontSource=https%3A%2F%2Ffonts.googleapis.com%2Fcss%3Ffamily%3DArchitects%2BDaughter;labelBackgroundColor=none;rounded=0;" parent="9b2ZEqx7m3cvuWr-d3pR-25" vertex="1">
          <mxGeometry width="36" height="22" as="geometry">
            <mxRectangle width="36" height="22" as="alternateBounds" />
          </mxGeometry>
        </mxCell>
        <mxCell id="9b2ZEqx7m3cvuWr-d3pR-27" value="Name" style="shape=partialRectangle;connectable=0;fillColor=none;top=0;left=0;bottom=0;right=0;align=left;spacingLeft=2;overflow=hidden;fontSize=11;hachureGap=4;fontFamily=Architects Daughter;fontSource=https%3A%2F%2Ffonts.googleapis.com%2Fcss%3Ffamily%3DArchitects%2BDaughter;labelBackgroundColor=none;rounded=0;" parent="9b2ZEqx7m3cvuWr-d3pR-25" vertex="1">
          <mxGeometry x="36" width="94" height="22" as="geometry">
            <mxRectangle width="94" height="22" as="alternateBounds" />
          </mxGeometry>
        </mxCell>
        <mxCell id="9b2ZEqx7m3cvuWr-d3pR-28" style="shape=tableRow;horizontal=0;startSize=0;swimlaneHead=0;swimlaneBody=0;fillColor=none;collapsible=0;dropTarget=0;points=[[0,0.5],[1,0.5]];portConstraint=eastwest;top=0;left=0;right=0;bottom=0;hachureGap=4;fontFamily=Architects Daughter;fontSource=https%3A%2F%2Ffonts.googleapis.com%2Fcss%3Ffamily%3DArchitects%2BDaughter;labelBackgroundColor=none;rounded=0;" parent="9b2ZEqx7m3cvuWr-d3pR-21" vertex="1">
          <mxGeometry y="69" width="130" height="22" as="geometry" />
        </mxCell>
        <mxCell id="9b2ZEqx7m3cvuWr-d3pR-29" value="string" style="shape=partialRectangle;connectable=0;fillColor=none;top=0;left=0;bottom=0;right=0;align=left;spacingLeft=2;overflow=hidden;fontSize=11;hachureGap=4;fontFamily=Architects Daughter;fontSource=https%3A%2F%2Ffonts.googleapis.com%2Fcss%3Ffamily%3DArchitects%2BDaughter;labelBackgroundColor=none;rounded=0;" parent="9b2ZEqx7m3cvuWr-d3pR-28" vertex="1">
          <mxGeometry width="36" height="22" as="geometry">
            <mxRectangle width="36" height="22" as="alternateBounds" />
          </mxGeometry>
        </mxCell>
        <mxCell id="9b2ZEqx7m3cvuWr-d3pR-30" value="Description" style="shape=partialRectangle;connectable=0;fillColor=none;top=0;left=0;bottom=0;right=0;align=left;spacingLeft=2;overflow=hidden;fontSize=11;hachureGap=4;fontFamily=Architects Daughter;fontSource=https%3A%2F%2Ffonts.googleapis.com%2Fcss%3Ffamily%3DArchitects%2BDaughter;labelBackgroundColor=none;rounded=0;" parent="9b2ZEqx7m3cvuWr-d3pR-28" vertex="1">
          <mxGeometry x="36" width="94" height="22" as="geometry">
            <mxRectangle width="94" height="22" as="alternateBounds" />
          </mxGeometry>
        </mxCell>
        <mxCell id="9b2ZEqx7m3cvuWr-d3pR-31" style="shape=tableRow;horizontal=0;startSize=0;swimlaneHead=0;swimlaneBody=0;fillColor=none;collapsible=0;dropTarget=0;points=[[0,0.5],[1,0.5]];portConstraint=eastwest;top=0;left=0;right=0;bottom=0;hachureGap=4;fontFamily=Architects Daughter;fontSource=https%3A%2F%2Ffonts.googleapis.com%2Fcss%3Ffamily%3DArchitects%2BDaughter;labelBackgroundColor=none;rounded=0;" parent="9b2ZEqx7m3cvuWr-d3pR-21" vertex="1">
          <mxGeometry y="91" width="130" height="22" as="geometry" />
        </mxCell>
        <mxCell id="9b2ZEqx7m3cvuWr-d3pR-32" value="string" style="shape=partialRectangle;connectable=0;fillColor=none;top=0;left=0;bottom=0;right=0;align=left;spacingLeft=2;overflow=hidden;fontSize=11;hachureGap=4;fontFamily=Architects Daughter;fontSource=https%3A%2F%2Ffonts.googleapis.com%2Fcss%3Ffamily%3DArchitects%2BDaughter;labelBackgroundColor=none;rounded=0;" parent="9b2ZEqx7m3cvuWr-d3pR-31" vertex="1">
          <mxGeometry width="36" height="22" as="geometry">
            <mxRectangle width="36" height="22" as="alternateBounds" />
          </mxGeometry>
        </mxCell>
        <mxCell id="9b2ZEqx7m3cvuWr-d3pR-33" value="permissions" style="shape=partialRectangle;connectable=0;fillColor=none;top=0;left=0;bottom=0;right=0;align=left;spacingLeft=2;overflow=hidden;fontSize=11;hachureGap=4;fontFamily=Architects Daughter;fontSource=https%3A%2F%2Ffonts.googleapis.com%2Fcss%3Ffamily%3DArchitects%2BDaughter;labelBackgroundColor=none;rounded=0;" parent="9b2ZEqx7m3cvuWr-d3pR-31" vertex="1">
          <mxGeometry x="36" width="94" height="22" as="geometry">
            <mxRectangle width="94" height="22" as="alternateBounds" />
          </mxGeometry>
        </mxCell>
        <mxCell id="9b2ZEqx7m3cvuWr-d3pR-34" value="Auth" style="shape=table;startSize=25;container=1;collapsible=0;childLayout=tableLayout;fixedRows=1;rowLines=1;fontStyle=1;align=center;resizeLast=1;hachureGap=4;fontFamily=Architects Daughter;fontSource=https%3A%2F%2Ffonts.googleapis.com%2Fcss%3Ffamily%3DArchitects%2BDaughter;labelBackgroundColor=none;rounded=0;" parent="1" vertex="1">
          <mxGeometry x="560" y="639" width="140" height="91" as="geometry" />
        </mxCell>
        <mxCell id="9b2ZEqx7m3cvuWr-d3pR-35" style="shape=tableRow;horizontal=0;startSize=0;swimlaneHead=0;swimlaneBody=0;fillColor=none;collapsible=0;dropTarget=0;points=[[0,0.5],[1,0.5]];portConstraint=eastwest;top=0;left=0;right=0;bottom=0;hachureGap=4;fontFamily=Architects Daughter;fontSource=https%3A%2F%2Ffonts.googleapis.com%2Fcss%3Ffamily%3DArchitects%2BDaughter;labelBackgroundColor=none;rounded=0;" parent="9b2ZEqx7m3cvuWr-d3pR-34" vertex="1">
          <mxGeometry y="25" width="140" height="22" as="geometry" />
        </mxCell>
        <mxCell id="9b2ZEqx7m3cvuWr-d3pR-36" value="int" style="shape=partialRectangle;connectable=0;fillColor=none;top=0;left=0;bottom=0;right=0;align=left;spacingLeft=2;overflow=hidden;fontSize=11;hachureGap=4;fontFamily=Architects Daughter;fontSource=https%3A%2F%2Ffonts.googleapis.com%2Fcss%3Ffamily%3DArchitects%2BDaughter;labelBackgroundColor=none;rounded=0;" parent="9b2ZEqx7m3cvuWr-d3pR-35" vertex="1">
          <mxGeometry width="36" height="22" as="geometry">
            <mxRectangle width="36" height="22" as="alternateBounds" />
          </mxGeometry>
        </mxCell>
        <mxCell id="9b2ZEqx7m3cvuWr-d3pR-37" value="User_ID" style="shape=partialRectangle;connectable=0;fillColor=none;top=0;left=0;bottom=0;right=0;align=left;spacingLeft=2;overflow=hidden;fontSize=11;hachureGap=4;fontFamily=Architects Daughter;fontSource=https%3A%2F%2Ffonts.googleapis.com%2Fcss%3Ffamily%3DArchitects%2BDaughter;labelBackgroundColor=none;rounded=0;" parent="9b2ZEqx7m3cvuWr-d3pR-35" vertex="1">
          <mxGeometry x="36" width="104" height="22" as="geometry">
            <mxRectangle width="104" height="22" as="alternateBounds" />
          </mxGeometry>
        </mxCell>
        <mxCell id="9b2ZEqx7m3cvuWr-d3pR-38" style="shape=tableRow;horizontal=0;startSize=0;swimlaneHead=0;swimlaneBody=0;fillColor=none;collapsible=0;dropTarget=0;points=[[0,0.5],[1,0.5]];portConstraint=eastwest;top=0;left=0;right=0;bottom=0;hachureGap=4;fontFamily=Architects Daughter;fontSource=https%3A%2F%2Ffonts.googleapis.com%2Fcss%3Ffamily%3DArchitects%2BDaughter;labelBackgroundColor=none;rounded=0;" parent="9b2ZEqx7m3cvuWr-d3pR-34" vertex="1">
          <mxGeometry y="47" width="140" height="22" as="geometry" />
        </mxCell>
        <mxCell id="9b2ZEqx7m3cvuWr-d3pR-39" value="string" style="shape=partialRectangle;connectable=0;fillColor=none;top=0;left=0;bottom=0;right=0;align=left;spacingLeft=2;overflow=hidden;fontSize=11;hachureGap=4;fontFamily=Architects Daughter;fontSource=https%3A%2F%2Ffonts.googleapis.com%2Fcss%3Ffamily%3DArchitects%2BDaughter;labelBackgroundColor=none;rounded=0;" parent="9b2ZEqx7m3cvuWr-d3pR-38" vertex="1">
          <mxGeometry width="36" height="22" as="geometry">
            <mxRectangle width="36" height="22" as="alternateBounds" />
          </mxGeometry>
        </mxCell>
        <mxCell id="9b2ZEqx7m3cvuWr-d3pR-40" value="Email" style="shape=partialRectangle;connectable=0;fillColor=none;top=0;left=0;bottom=0;right=0;align=left;spacingLeft=2;overflow=hidden;fontSize=11;hachureGap=4;fontFamily=Architects Daughter;fontSource=https%3A%2F%2Ffonts.googleapis.com%2Fcss%3Ffamily%3DArchitects%2BDaughter;labelBackgroundColor=none;rounded=0;" parent="9b2ZEqx7m3cvuWr-d3pR-38" vertex="1">
          <mxGeometry x="36" width="104" height="22" as="geometry">
            <mxRectangle width="104" height="22" as="alternateBounds" />
          </mxGeometry>
        </mxCell>
        <mxCell id="9b2ZEqx7m3cvuWr-d3pR-41" style="shape=tableRow;horizontal=0;startSize=0;swimlaneHead=0;swimlaneBody=0;fillColor=none;collapsible=0;dropTarget=0;points=[[0,0.5],[1,0.5]];portConstraint=eastwest;top=0;left=0;right=0;bottom=0;hachureGap=4;fontFamily=Architects Daughter;fontSource=https%3A%2F%2Ffonts.googleapis.com%2Fcss%3Ffamily%3DArchitects%2BDaughter;labelBackgroundColor=none;rounded=0;" parent="9b2ZEqx7m3cvuWr-d3pR-34" vertex="1">
          <mxGeometry y="69" width="140" height="22" as="geometry" />
        </mxCell>
        <mxCell id="9b2ZEqx7m3cvuWr-d3pR-42" value="string" style="shape=partialRectangle;connectable=0;fillColor=none;top=0;left=0;bottom=0;right=0;align=left;spacingLeft=2;overflow=hidden;fontSize=11;hachureGap=4;fontFamily=Architects Daughter;fontSource=https%3A%2F%2Ffonts.googleapis.com%2Fcss%3Ffamily%3DArchitects%2BDaughter;labelBackgroundColor=none;rounded=0;" parent="9b2ZEqx7m3cvuWr-d3pR-41" vertex="1">
          <mxGeometry width="36" height="22" as="geometry">
            <mxRectangle width="36" height="22" as="alternateBounds" />
          </mxGeometry>
        </mxCell>
        <mxCell id="9b2ZEqx7m3cvuWr-d3pR-43" value="Hashed_password" style="shape=partialRectangle;connectable=0;fillColor=none;top=0;left=0;bottom=0;right=0;align=left;spacingLeft=2;overflow=hidden;fontSize=11;hachureGap=4;fontFamily=Architects Daughter;fontSource=https%3A%2F%2Ffonts.googleapis.com%2Fcss%3Ffamily%3DArchitects%2BDaughter;labelBackgroundColor=none;rounded=0;" parent="9b2ZEqx7m3cvuWr-d3pR-41" vertex="1">
          <mxGeometry x="36" width="104" height="22" as="geometry">
            <mxRectangle width="104" height="22" as="alternateBounds" />
          </mxGeometry>
        </mxCell>
        <mxCell id="9b2ZEqx7m3cvuWr-d3pR-44" value="has" style="startArrow=ERmandOne;startSize=10;;endArrow=ERmandOne;endSize=10;;exitX=-0.006;exitY=0.957;rounded=0;hachureGap=4;fontFamily=Architects Daughter;fontSource=https%3A%2F%2Ffonts.googleapis.com%2Fcss%3Ffamily%3DArchitects%2BDaughter;exitDx=0;exitDy=0;exitPerimeter=0;entryX=0.5;entryY=0;entryDx=0;entryDy=0;labelBackgroundColor=none;fontColor=default;endFill=0;" parent="1" source="1vJfrN8NMG1-H0iuWCPC-32" target="9b2ZEqx7m3cvuWr-d3pR-34" edge="1">
          <mxGeometry x="-0.0059" relative="1" as="geometry">
            <mxPoint x="800" y="626" as="targetPoint" />
            <mxPoint as="offset" />
            <mxPoint x="867" y="512" as="sourcePoint" />
          </mxGeometry>
        </mxCell>
        <mxCell id="9b2ZEqx7m3cvuWr-d3pR-45" value="Report Types" style="shape=table;startSize=25;container=1;collapsible=0;childLayout=tableLayout;fixedRows=1;rowLines=1;fontStyle=1;align=center;resizeLast=1;hachureGap=4;fontFamily=Architects Daughter;fontSource=https%3A%2F%2Ffonts.googleapis.com%2Fcss%3Ffamily%3DArchitects%2BDaughter;labelBackgroundColor=none;rounded=0;" parent="1" vertex="1">
          <mxGeometry x="1240" y="466" width="130" height="91" as="geometry" />
        </mxCell>
        <mxCell id="9b2ZEqx7m3cvuWr-d3pR-46" style="shape=tableRow;horizontal=0;startSize=0;swimlaneHead=0;swimlaneBody=0;fillColor=none;collapsible=0;dropTarget=0;points=[[0,0.5],[1,0.5]];portConstraint=eastwest;top=0;left=0;right=0;bottom=0;hachureGap=4;fontFamily=Architects Daughter;fontSource=https%3A%2F%2Ffonts.googleapis.com%2Fcss%3Ffamily%3DArchitects%2BDaughter;labelBackgroundColor=none;rounded=0;" parent="9b2ZEqx7m3cvuWr-d3pR-45" vertex="1">
          <mxGeometry y="25" width="130" height="22" as="geometry" />
        </mxCell>
        <mxCell id="9b2ZEqx7m3cvuWr-d3pR-47" value="int" style="shape=partialRectangle;connectable=0;fillColor=none;top=0;left=0;bottom=0;right=0;align=left;spacingLeft=2;overflow=hidden;fontSize=11;hachureGap=4;fontFamily=Architects Daughter;fontSource=https%3A%2F%2Ffonts.googleapis.com%2Fcss%3Ffamily%3DArchitects%2BDaughter;labelBackgroundColor=none;rounded=0;" parent="9b2ZEqx7m3cvuWr-d3pR-46" vertex="1">
          <mxGeometry width="36" height="22" as="geometry">
            <mxRectangle width="36" height="22" as="alternateBounds" />
          </mxGeometry>
        </mxCell>
        <mxCell id="9b2ZEqx7m3cvuWr-d3pR-48" value="Report_Type_ID" style="shape=partialRectangle;connectable=0;fillColor=none;top=0;left=0;bottom=0;right=0;align=left;spacingLeft=2;overflow=hidden;fontSize=11;hachureGap=4;fontFamily=Architects Daughter;fontSource=https%3A%2F%2Ffonts.googleapis.com%2Fcss%3Ffamily%3DArchitects%2BDaughter;labelBackgroundColor=none;rounded=0;" parent="9b2ZEqx7m3cvuWr-d3pR-46" vertex="1">
          <mxGeometry x="36" width="94" height="22" as="geometry">
            <mxRectangle width="94" height="22" as="alternateBounds" />
          </mxGeometry>
        </mxCell>
        <mxCell id="9b2ZEqx7m3cvuWr-d3pR-49" style="shape=tableRow;horizontal=0;startSize=0;swimlaneHead=0;swimlaneBody=0;fillColor=none;collapsible=0;dropTarget=0;points=[[0,0.5],[1,0.5]];portConstraint=eastwest;top=0;left=0;right=0;bottom=0;hachureGap=4;fontFamily=Architects Daughter;fontSource=https%3A%2F%2Ffonts.googleapis.com%2Fcss%3Ffamily%3DArchitects%2BDaughter;labelBackgroundColor=none;rounded=0;" parent="9b2ZEqx7m3cvuWr-d3pR-45" vertex="1">
          <mxGeometry y="47" width="130" height="22" as="geometry" />
        </mxCell>
        <mxCell id="9b2ZEqx7m3cvuWr-d3pR-50" value="string" style="shape=partialRectangle;connectable=0;fillColor=none;top=0;left=0;bottom=0;right=0;align=left;spacingLeft=2;overflow=hidden;fontSize=11;hachureGap=4;fontFamily=Architects Daughter;fontSource=https%3A%2F%2Ffonts.googleapis.com%2Fcss%3Ffamily%3DArchitects%2BDaughter;labelBackgroundColor=none;rounded=0;" parent="9b2ZEqx7m3cvuWr-d3pR-49" vertex="1">
          <mxGeometry width="36" height="22" as="geometry">
            <mxRectangle width="36" height="22" as="alternateBounds" />
          </mxGeometry>
        </mxCell>
        <mxCell id="9b2ZEqx7m3cvuWr-d3pR-51" value="Name" style="shape=partialRectangle;connectable=0;fillColor=none;top=0;left=0;bottom=0;right=0;align=left;spacingLeft=2;overflow=hidden;fontSize=11;hachureGap=4;fontFamily=Architects Daughter;fontSource=https%3A%2F%2Ffonts.googleapis.com%2Fcss%3Ffamily%3DArchitects%2BDaughter;labelBackgroundColor=none;rounded=0;" parent="9b2ZEqx7m3cvuWr-d3pR-49" vertex="1">
          <mxGeometry x="36" width="94" height="22" as="geometry">
            <mxRectangle width="94" height="22" as="alternateBounds" />
          </mxGeometry>
        </mxCell>
        <mxCell id="9b2ZEqx7m3cvuWr-d3pR-52" style="shape=tableRow;horizontal=0;startSize=0;swimlaneHead=0;swimlaneBody=0;fillColor=none;collapsible=0;dropTarget=0;points=[[0,0.5],[1,0.5]];portConstraint=eastwest;top=0;left=0;right=0;bottom=0;hachureGap=4;fontFamily=Architects Daughter;fontSource=https%3A%2F%2Ffonts.googleapis.com%2Fcss%3Ffamily%3DArchitects%2BDaughter;labelBackgroundColor=none;rounded=0;" parent="9b2ZEqx7m3cvuWr-d3pR-45" vertex="1">
          <mxGeometry y="69" width="130" height="22" as="geometry" />
        </mxCell>
        <mxCell id="9b2ZEqx7m3cvuWr-d3pR-53" value="string" style="shape=partialRectangle;connectable=0;fillColor=none;top=0;left=0;bottom=0;right=0;align=left;spacingLeft=2;overflow=hidden;fontSize=11;hachureGap=4;fontFamily=Architects Daughter;fontSource=https%3A%2F%2Ffonts.googleapis.com%2Fcss%3Ffamily%3DArchitects%2BDaughter;labelBackgroundColor=none;rounded=0;" parent="9b2ZEqx7m3cvuWr-d3pR-52" vertex="1">
          <mxGeometry width="36" height="22" as="geometry">
            <mxRectangle width="36" height="22" as="alternateBounds" />
          </mxGeometry>
        </mxCell>
        <mxCell id="9b2ZEqx7m3cvuWr-d3pR-54" value="Description" style="shape=partialRectangle;connectable=0;fillColor=none;top=0;left=0;bottom=0;right=0;align=left;spacingLeft=2;overflow=hidden;fontSize=11;hachureGap=4;fontFamily=Architects Daughter;fontSource=https%3A%2F%2Ffonts.googleapis.com%2Fcss%3Ffamily%3DArchitects%2BDaughter;labelBackgroundColor=none;rounded=0;" parent="9b2ZEqx7m3cvuWr-d3pR-52" vertex="1">
          <mxGeometry x="36" width="94" height="22" as="geometry">
            <mxRectangle width="94" height="22" as="alternateBounds" />
          </mxGeometry>
        </mxCell>
        <mxCell id="9b2ZEqx7m3cvuWr-d3pR-55" value="Action Type" style="shape=table;startSize=25;container=1;collapsible=0;childLayout=tableLayout;fixedRows=1;rowLines=1;fontStyle=1;align=center;resizeLast=1;hachureGap=4;fontFamily=Architects Daughter;fontSource=https%3A%2F%2Ffonts.googleapis.com%2Fcss%3Ffamily%3DArchitects%2BDaughter;labelBackgroundColor=none;rounded=0;" parent="1" vertex="1">
          <mxGeometry x="1020" y="466" width="140" height="91" as="geometry" />
        </mxCell>
        <mxCell id="9b2ZEqx7m3cvuWr-d3pR-56" style="shape=tableRow;horizontal=0;startSize=0;swimlaneHead=0;swimlaneBody=0;fillColor=none;collapsible=0;dropTarget=0;points=[[0,0.5],[1,0.5]];portConstraint=eastwest;top=0;left=0;right=0;bottom=0;hachureGap=4;fontFamily=Architects Daughter;fontSource=https%3A%2F%2Ffonts.googleapis.com%2Fcss%3Ffamily%3DArchitects%2BDaughter;labelBackgroundColor=none;rounded=0;" parent="9b2ZEqx7m3cvuWr-d3pR-55" vertex="1">
          <mxGeometry y="25" width="140" height="22" as="geometry" />
        </mxCell>
        <mxCell id="9b2ZEqx7m3cvuWr-d3pR-57" value="int" style="shape=partialRectangle;connectable=0;fillColor=none;top=0;left=0;bottom=0;right=0;align=left;spacingLeft=2;overflow=hidden;fontSize=11;hachureGap=4;fontFamily=Architects Daughter;fontSource=https%3A%2F%2Ffonts.googleapis.com%2Fcss%3Ffamily%3DArchitects%2BDaughter;labelBackgroundColor=none;rounded=0;" parent="9b2ZEqx7m3cvuWr-d3pR-56" vertex="1">
          <mxGeometry width="36" height="22" as="geometry">
            <mxRectangle width="36" height="22" as="alternateBounds" />
          </mxGeometry>
        </mxCell>
        <mxCell id="9b2ZEqx7m3cvuWr-d3pR-58" value="Action_Type_ID" style="shape=partialRectangle;connectable=0;fillColor=none;top=0;left=0;bottom=0;right=0;align=left;spacingLeft=2;overflow=hidden;fontSize=11;hachureGap=4;fontFamily=Architects Daughter;fontSource=https%3A%2F%2Ffonts.googleapis.com%2Fcss%3Ffamily%3DArchitects%2BDaughter;labelBackgroundColor=none;rounded=0;" parent="9b2ZEqx7m3cvuWr-d3pR-56" vertex="1">
          <mxGeometry x="36" width="104" height="22" as="geometry">
            <mxRectangle width="104" height="22" as="alternateBounds" />
          </mxGeometry>
        </mxCell>
        <mxCell id="9b2ZEqx7m3cvuWr-d3pR-59" style="shape=tableRow;horizontal=0;startSize=0;swimlaneHead=0;swimlaneBody=0;fillColor=none;collapsible=0;dropTarget=0;points=[[0,0.5],[1,0.5]];portConstraint=eastwest;top=0;left=0;right=0;bottom=0;hachureGap=4;fontFamily=Architects Daughter;fontSource=https%3A%2F%2Ffonts.googleapis.com%2Fcss%3Ffamily%3DArchitects%2BDaughter;labelBackgroundColor=none;rounded=0;" parent="9b2ZEqx7m3cvuWr-d3pR-55" vertex="1">
          <mxGeometry y="47" width="140" height="22" as="geometry" />
        </mxCell>
        <mxCell id="9b2ZEqx7m3cvuWr-d3pR-60" value="string" style="shape=partialRectangle;connectable=0;fillColor=none;top=0;left=0;bottom=0;right=0;align=left;spacingLeft=2;overflow=hidden;fontSize=11;hachureGap=4;fontFamily=Architects Daughter;fontSource=https%3A%2F%2Ffonts.googleapis.com%2Fcss%3Ffamily%3DArchitects%2BDaughter;labelBackgroundColor=none;rounded=0;" parent="9b2ZEqx7m3cvuWr-d3pR-59" vertex="1">
          <mxGeometry width="36" height="22" as="geometry">
            <mxRectangle width="36" height="22" as="alternateBounds" />
          </mxGeometry>
        </mxCell>
        <mxCell id="9b2ZEqx7m3cvuWr-d3pR-61" value="Name" style="shape=partialRectangle;connectable=0;fillColor=none;top=0;left=0;bottom=0;right=0;align=left;spacingLeft=2;overflow=hidden;fontSize=11;hachureGap=4;fontFamily=Architects Daughter;fontSource=https%3A%2F%2Ffonts.googleapis.com%2Fcss%3Ffamily%3DArchitects%2BDaughter;labelBackgroundColor=none;rounded=0;" parent="9b2ZEqx7m3cvuWr-d3pR-59" vertex="1">
          <mxGeometry x="36" width="104" height="22" as="geometry">
            <mxRectangle width="104" height="22" as="alternateBounds" />
          </mxGeometry>
        </mxCell>
        <mxCell id="9b2ZEqx7m3cvuWr-d3pR-62" style="shape=tableRow;horizontal=0;startSize=0;swimlaneHead=0;swimlaneBody=0;fillColor=none;collapsible=0;dropTarget=0;points=[[0,0.5],[1,0.5]];portConstraint=eastwest;top=0;left=0;right=0;bottom=0;hachureGap=4;fontFamily=Architects Daughter;fontSource=https%3A%2F%2Ffonts.googleapis.com%2Fcss%3Ffamily%3DArchitects%2BDaughter;labelBackgroundColor=none;rounded=0;" parent="9b2ZEqx7m3cvuWr-d3pR-55" vertex="1">
          <mxGeometry y="69" width="140" height="22" as="geometry" />
        </mxCell>
        <mxCell id="9b2ZEqx7m3cvuWr-d3pR-63" value="string" style="shape=partialRectangle;connectable=0;fillColor=none;top=0;left=0;bottom=0;right=0;align=left;spacingLeft=2;overflow=hidden;fontSize=11;hachureGap=4;fontFamily=Architects Daughter;fontSource=https%3A%2F%2Ffonts.googleapis.com%2Fcss%3Ffamily%3DArchitects%2BDaughter;labelBackgroundColor=none;rounded=0;" parent="9b2ZEqx7m3cvuWr-d3pR-62" vertex="1">
          <mxGeometry width="36" height="22" as="geometry">
            <mxRectangle width="36" height="22" as="alternateBounds" />
          </mxGeometry>
        </mxCell>
        <mxCell id="9b2ZEqx7m3cvuWr-d3pR-64" value="Description" style="shape=partialRectangle;connectable=0;fillColor=none;top=0;left=0;bottom=0;right=0;align=left;spacingLeft=2;overflow=hidden;fontSize=11;hachureGap=4;fontFamily=Architects Daughter;fontSource=https%3A%2F%2Ffonts.googleapis.com%2Fcss%3Ffamily%3DArchitects%2BDaughter;labelBackgroundColor=none;rounded=0;" parent="9b2ZEqx7m3cvuWr-d3pR-62" vertex="1">
          <mxGeometry x="36" width="104" height="22" as="geometry">
            <mxRectangle width="104" height="22" as="alternateBounds" />
          </mxGeometry>
        </mxCell>
      </root>
    </mxGraphModel>
  </diagram>
</mxfile>
